<?xml version="1.0" encoding="utf-8"?>
<!-- Generator: Adobe Illustrator 28.2.0, SVG Export Plug-In . SVG Version: 6.00 Build 0)  -->
<svg version="1.1" id="Layer_1" xmlns="http://www.w3.org/2000/svg" xmlns:xlink="http://www.w3.org/1999/xlink" x="0px" y="0px"
	 viewBox="0 0 536 333" style="enable-background:new 0 0 536 333;" xml:space="preserve">
<style type="text/css">
	.st0{clip-path:url(#SVGID_00000052819244050436267210000011483236177652382891_);}
	.st1{fill:#FFFFFF;}
	.st2{fill:#FFFFFF;filter:url(#Adobe_OpacityMaskFilter);}
	.st3{mask:url(#mask0_206_651_00000176751622140900782630000001400506099697721526_);}
	.st4{fill:#EBEBEB;}
	.st5{fill:#E0E0E0;}
	.st6{fill:#0193CC;}
	.st7{opacity:0.8;}
	.st8{opacity:0.8;fill:#FFFFFF;enable-background:new    ;}
	.st9{opacity:0.4;}
	.st10{fill:#001E2B;}
	.st11{fill:#0AAD0A;}
	.st12{fill:#3D4F58;}
	.st13{fill:#FFBE9D;}
	.st14{fill:#EB996E;}
	.st15{opacity:0.3;}
</style>
<g>
	<defs>
		<rect id="SVGID_1_" width="536" height="333"/>
	</defs>
	<clipPath id="SVGID_00000127736127521937657810000002358747103265042592_">
		<use xlink:href="#SVGID_1_"  style="overflow:visible;"/>
	</clipPath>
	<g style="clip-path:url(#SVGID_00000127736127521937657810000002358747103265042592_);">
		<rect class="st1" width="536" height="333"/>
		<defs>
			<filter id="Adobe_OpacityMaskFilter" filterUnits="userSpaceOnUse" x="0" y="0" width="536" height="333">
				<feColorMatrix  type="matrix" values="1 0 0 0 0  0 1 0 0 0  0 0 1 0 0  0 0 0 1 0"/>
			</filter>
		</defs>
		
			<mask maskUnits="userSpaceOnUse" x="0" y="0" width="536" height="333" id="mask0_206_651_00000176751622140900782630000001400506099697721526_">
			<path class="st2" d="M536,0H0v333h536V0z"/>
		</mask>
		<g class="st3">
			<path class="st4" d="M343.1,322.9c3.8-2.1,8.7-2.2,12.5-0.2c3.9,2,6.6,6,7,10.4C354.7,333,346.8,331.1,343.1,322.9z"/>
			<path class="st4" d="M352.4,314.7c5.3,1.7,11.5,0.6,15.9-2.9c4.4-3.5,6.9-9.3,6.4-14.9C364.6,298.9,355,303.2,352.4,314.7z"/>
			<path class="st5" d="M317.6,328.2c0,0,0.2-0.1,0.5-0.2c0.4-0.1,0.9-0.3,1.5-0.5c1.3-0.4,3.1-1,5.4-1.8c4.5-1.6,10.7-3.8,17.4-6.7
				c3.3-1.5,6.5-3,9.3-4.4c2.8-1.4,5.3-2.8,7.3-4.1c2-1.3,3.6-2.3,4.6-3.2c1-0.8,1.6-1.4,1.6-1.3c0,0-0.1,0.1-0.4,0.4
				c-0.3,0.2-0.6,0.6-1.1,1.1c-1,0.9-2.6,2-4.6,3.3c-2,1.3-4.5,2.7-7.3,4.2c-2.8,1.4-6,3-9.3,4.4c-6.7,2.9-12.9,5.1-17.5,6.6
				c-2.3,0.8-4.1,1.3-5.4,1.7c-0.6,0.2-1.1,0.3-1.5,0.4C317.8,328.2,317.6,328.2,317.6,328.2z"/>
			<path class="st5" d="M353.4,327.5c0,0.1-1-0.6-2.6-1.4c-1.6-0.9-3.9-1.9-6.5-2.6c-2.7-0.7-5.2-1-7-1.1c-1.8-0.1-2.9,0-2.9-0.1
				c0,0,0.3-0.1,0.8-0.1c0.5-0.1,1.2-0.1,2.2-0.1c1.8,0,4.4,0.2,7.1,1c2.7,0.7,5,1.8,6.6,2.8c0.8,0.5,1.4,0.9,1.8,1.2
				C353.2,327.3,353.4,327.5,353.4,327.5z"/>
			<path class="st4" d="M164.9,291.9c-1.9,5.1-1.1,11.2,2.1,15.6c3.2,4.4,8.8,7.1,14.2,6.8C179.7,304.4,175.9,295,164.9,291.9z"/>
			<path class="st5" d="M163.3,287c0.1,0,0.3,1.1,0.9,2.8c0.6,1.7,1.5,4.1,2.8,6.6c1.3,2.5,2.8,4.5,3.9,6c1.1,1.4,1.9,2.3,1.8,2.3
				c0,0-0.2-0.2-0.6-0.5c-0.4-0.4-0.9-0.9-1.5-1.6c-1.2-1.4-2.7-3.5-4-6c-1.3-2.5-2.2-4.9-2.7-6.7c-0.3-0.9-0.4-1.6-0.5-2.1
				C163.3,287.3,163.3,287,163.3,287z"/>
			<path class="st4" d="M6.7,92.2c-3,8-1.7,17.4,3.3,24.2c5,6.9,13.6,11,22.1,10.5C29.8,111.6,23.8,96.9,6.7,92.2z"/>
			<path class="st5" d="M4.3,84.7c0,0,0.2,0.4,0.4,1.2c0.2,0.8,0.5,1.9,1,3.2c0.9,2.7,2.3,6.4,4.3,10.2c2,3.8,4.3,7,6.1,9.2
				c0.9,1.1,1.6,2,2.1,2.6c0.5,0.6,0.8,0.9,0.8,1c0,0-0.3-0.3-0.9-0.9c-0.6-0.6-1.3-1.4-2.3-2.5c-1.8-2.2-4.2-5.4-6.2-9.2
				c-2.1-3.8-3.4-7.6-4.2-10.3c-0.4-1.4-0.7-2.5-0.8-3.3C4.4,85.1,4.3,84.7,4.3,84.7z"/>
			<path class="st4" d="M33.5,249.8c-4.3,3.4-6.6,9.1-6.1,14.6c0.5,5.5,3.9,10.5,8.8,13.1C39.9,268.1,41.4,258,33.5,249.8z"/>
			<path class="st5" d="M34.6,244.8c0.1,0-0.3,1.1-0.6,2.9c-0.4,1.8-0.8,4.3-0.9,7.1c-0.1,2.8,0.1,5.3,0.3,7.1
				c0.2,1.8,0.5,2.9,0.4,2.9c0,0-0.1-0.3-0.2-0.8c-0.1-0.5-0.3-1.2-0.5-2.1c-0.3-1.8-0.6-4.4-0.4-7.2c0.1-2.8,0.6-5.3,1-7.1
				c0.2-0.9,0.5-1.6,0.6-2.1C34.5,245,34.6,244.8,34.6,244.8z"/>
			<path class="st4" d="M180.3,49.7c4.9,2.4,11,2.2,15.8-0.5c4.7-2.8,7.9-8,8.2-13.5C194.2,36.2,184.5,39,180.3,49.7z"/>
			<path class="st5" d="M175.3,50.7c0-0.1,1.1-0.2,2.9-0.6c1.8-0.4,4.2-1.1,6.8-2.1c2.6-1.1,4.8-2.3,6.3-3.3c1.6-1,2.5-1.7,2.5-1.6
				c0,0-0.2,0.2-0.6,0.5c-0.4,0.3-1,0.8-1.7,1.3c-1.5,1-3.7,2.3-6.3,3.4c-2.6,1.1-5.1,1.7-6.9,2c-0.9,0.2-1.6,0.3-2.2,0.3
				C175.6,50.7,175.3,50.7,175.3,50.7z"/>
			<path class="st4" d="M159.8,48.2c7.1-1.5,13.2-6.8,15.8-13.5c2.6-6.7,1.6-14.8-2.6-20.7C163.1,22.8,155.3,33.8,159.8,48.2z"/>
			<path class="st5" d="M155.5,53.4c0,0,0.2-0.3,0.7-0.8c0.5-0.5,1.1-1.2,1.9-2.2c1.5-1.9,3.5-4.6,5.3-7.8c1.8-3.2,3-6.3,3.8-8.6
				c0.4-1.1,0.7-2.1,0.9-2.7c0.2-0.6,0.3-1,0.3-1c0,0,0,0.4-0.2,1c-0.1,0.7-0.4,1.6-0.8,2.8c-0.7,2.3-1.9,5.5-3.7,8.7
				c-1.8,3.2-3.8,5.9-5.4,7.8c-0.8,0.9-1.5,1.6-2,2.1C155.8,53.2,155.5,53.5,155.5,53.4z"/>
			<path class="st4" d="M224.7,319.3c1.5,2.9,4.5,5,7.8,5.4c3.3,0.4,6.7-1,8.8-3.6C236.3,317.8,230.5,315.6,224.7,319.3z"/>
			<path class="st5" d="M221.9,318c0.1-0.1,2.4,1.3,5.7,2.1c3.2,0.8,6,0.8,6,0.9c0,0-0.7,0.1-1.8,0.1c-1.1,0-2.7-0.2-4.3-0.6
				c-1.6-0.4-3.1-1-4.1-1.5C222.4,318.5,221.9,318.1,221.9,318z"/>
			<path class="st4" d="M298.1,35.2c2,2.6,5.4,4.1,8.7,3.8c3.3-0.3,6.4-2.3,8-5.2C309.1,31.5,303.1,30.5,298.1,35.2z"/>
			<path class="st5" d="M295.1,34.5c0-0.1,2.6,0.8,6,0.9c3.3,0.2,6-0.4,6.1-0.3c0,0-0.6,0.3-1.7,0.5c-1.1,0.2-2.6,0.3-4.3,0.2
				c-1.7-0.1-3.2-0.4-4.3-0.7C295.7,34.8,295,34.5,295.1,34.5z"/>
			<path class="st4" d="M488.1,59.5c5.3,1.5,11.3,0.1,15.4-3.5c4.1-3.6,6.3-9.4,5.5-14.8C499.2,43.6,490.2,48.3,488.1,59.5z"/>
			<path class="st5" d="M483.4,61.5c0-0.1,1.1-0.4,2.7-1.2c1.7-0.7,3.9-1.9,6.3-3.4c2.3-1.5,4.3-3.2,5.6-4.4c1.3-1.3,2.1-2.1,2.1-2
				c0,0-0.2,0.2-0.5,0.6c-0.3,0.4-0.8,1-1.5,1.6c-1.3,1.3-3.2,3-5.6,4.6c-2.4,1.5-4.7,2.7-6.4,3.3c-0.9,0.3-1.6,0.6-2.1,0.7
				C483.7,61.5,483.4,61.5,483.4,61.5z"/>
			<path class="st4" d="M506.9,300.7c9.3-2.1,17.3-9.2,20.6-18.1c3.3-8.9,1.8-19.5-3.9-27.2C510.7,267.2,500.6,281.8,506.9,300.7z"
				/>
			<path class="st5" d="M501.3,307.7c0,0,0.3-0.4,0.9-1.1c0.6-0.7,1.4-1.7,2.4-2.9c1-1.2,2.1-2.8,3.3-4.5c1.2-1.7,2.4-3.7,3.5-5.9
				c1.1-2.1,2.1-4.2,2.9-6.2c0.8-1.9,1.4-3.7,1.9-5.2c0.5-1.5,0.9-2.8,1.1-3.6c0.2-0.9,0.4-1.3,0.4-1.3c0,0-0.1,0.5-0.3,1.4
				c-0.2,0.9-0.5,2.1-1,3.7c-0.5,1.5-1.1,3.3-1.9,5.3c-0.8,2-1.8,4.1-2.9,6.2c-1.2,2.2-2.4,4.1-3.6,5.9c-1.2,1.7-2.4,3.3-3.4,4.5
				c-1,1.2-1.9,2.2-2.5,2.8C501.7,307.4,501.3,307.7,501.3,307.7z"/>
			<path class="st6" d="M399.5,200.9c-5-27.9-28.9-52.3-57.2-54.6c-15.4-1.3-30.9,3.6-46.2,1.7c-12.9-1.6-25.1-8-33.6-17.7
				c-12.6-14.4-16.9-34.9-30.3-48.6c-18.5-18.9-50.7-19.2-73.2-5.3c-22.5,13.9-36.1,39-42.3,64.7l-0.2,7.8
				c-1.4,26.6,5.6,57.6,21.1,81.3c15.7,24.1,26,34,54.5,51.3c24.2,14.7,71.7,21.1,100,21.8c28.3,0.7,57.4-7.8,78.7-26.4
				C392.1,258.3,404.5,228.8,399.5,200.9z"/>
			<g class="st7">
				<path class="st1" d="M399.5,200.9c-5-27.9-28.9-52.3-57.2-54.6c-15.4-1.3-30.9,3.6-46.2,1.7c-12.9-1.6-25.1-8-33.6-17.7
					c-12.6-14.4-16.9-34.9-30.3-48.6c-18.5-18.9-50.7-19.2-73.2-5.3c-22.5,13.9-36.1,39-42.3,64.7l-0.2,7.8
					c-1.4,26.6,5.6,57.6,21.1,81.3c15.7,24.1,26,34,54.5,51.3c24.2,14.7,71.7,21.1,100,21.8c28.3,0.7,57.4-7.8,78.7-26.4
					C392.1,258.3,404.5,228.8,399.5,200.9z"/>
			</g>
			<path class="st6" d="M427.2,300.5c1.1-7.5-4.1-14.4-11.5-15.5c-7.5-1.1-14.4,4.1-15.5,11.5c-1.1,7.5,4.1,14.4,11.5,15.5
				C419.2,313.2,426.1,308,427.2,300.5z"/>
			<path class="st8" d="M427.2,300.5c1.1-7.5-4.1-14.4-11.5-15.5c-7.5-1.1-14.4,4.1-15.5,11.5c-1.1,7.5,4.1,14.4,11.5,15.5
				C419.2,313.2,426.1,308,427.2,300.5z"/>
			<path class="st6" d="M317.9,193.5c0.3,27.2-5.7,48.1-17.8,62.5c-12.1,14.4-28.8,21.7-49.9,21.9c-21.2,0.2-38.1-6.8-50.6-21
				c-12.5-14.2-18.9-34.9-19.2-62.1l-0.5-47.9c-0.3-27.2,5.7-48,17.8-62.5c12.1-14.5,28.8-21.9,50-22.1c21.1-0.2,37.9,6.8,50.4,21.1
				c12.5,14.3,18.9,35,19.2,62.1L317.9,193.5z M282.4,140.6c-0.2-17.2-3.2-29.8-9-38c-5.8-8.2-14.3-12.2-25.3-12.1
				c-11,0.1-19.4,4.3-25,12.6c-5.6,8.3-8.4,21-8.2,38.2l0.6,58.2c0.2,17.3,3.2,30,9.1,38.2c5.9,8.2,14.3,12.3,25.4,12.2
				c11-0.1,19.3-4.3,24.9-12.6c5.6-8.3,8.3-21.1,8.1-38.5L282.4,140.6z"/>
			<g class="st9">
				<path class="st10" d="M317.9,193.5c0.3,27.2-5.7,48.1-17.8,62.5c-12.1,14.4-28.8,21.7-49.9,21.9c-21.2,0.2-38.1-6.8-50.6-21
					c-12.5-14.2-18.9-34.9-19.2-62.1l-0.5-47.9c-0.3-27.2,5.7-48,17.8-62.5c12.1-14.5,28.8-21.9,50-22.1
					c21.1-0.2,37.9,6.8,50.4,21.1c12.5,14.3,18.9,35,19.2,62.1L317.9,193.5z M282.4,140.6c-0.2-17.2-3.2-29.8-9-38
					c-5.8-8.2-14.3-12.2-25.3-12.1c-11,0.1-19.4,4.3-25,12.6c-5.6,8.3-8.4,21-8.2,38.2l0.6,58.2c0.2,17.3,3.2,30,9.1,38.2
					c5.9,8.2,14.3,12.3,25.4,12.2c11-0.1,19.3-4.3,24.9-12.6c5.6-8.3,8.3-21.1,8.1-38.5L282.4,140.6z"/>
			</g>
			<path class="st6" d="M338.1,193.4c0.3,27.2-5.7,48.1-17.8,62.5c-12.1,14.4-28.8,21.7-49.9,21.9c-21.2,0.2-38.1-6.8-50.6-21
				c-12.5-14.2-18.9-34.9-19.2-62.1l-0.5-47.9c-0.3-27.2,5.7-48,17.8-62.5c12.1-14.5,28.8-21.9,50-22.1c21.1-0.2,37.9,6.8,50.4,21.1
				c12.5,14.3,18.9,35,19.2,62.1L338.1,193.4z M302.6,140.4c-0.2-17.2-3.2-29.8-9-38c-5.8-8.2-14.3-12.2-25.3-12.1
				c-11,0.1-19.4,4.3-25,12.6c-5.6,8.3-8.4,21-8.2,38.2l0.6,58.2c0.2,17.3,3.2,30,9.1,38.2c5.9,8.2,14.3,12.3,25.4,12.2
				c11-0.1,19.3-4.3,24.9-12.6c5.6-8.3,8.3-21.1,8.1-38.5L302.6,140.4z"/>
			<path class="st6" d="M200.3,149.6c0,0.1-4.6,2-10.4,4.1c-5.8,2.2-10.6,3.9-10.6,3.8c0-0.1,4.6-2,10.5-4.1
				C195.5,151.2,200.3,149.5,200.3,149.6z"/>
			<path class="st6" d="M201.5,168.5c0,0.1-4.6,2-10.4,4.1c-5.8,2.2-10.6,3.9-10.6,3.8c0-0.1,4.6-2,10.5-4.1
				C196.7,170.1,201.5,168.4,201.5,168.5z"/>
			<path class="st6" d="M202.7,187.5c0,0.1-4.6,2-10.4,4.1c-5.8,2.2-10.6,3.9-10.6,3.8c0-0.1,4.6-2,10.5-4.1
				C197.9,189,202.6,187.4,202.7,187.5z"/>
			<path class="st6" d="M203.8,206.4c0,0.1-4.6,2-10.4,4.1c-5.8,2.2-10.6,3.9-10.6,3.8c0-0.1,4.6-2,10.5-4.1
				C199,208,203.8,206.3,203.8,206.4z"/>
			<path class="st6" d="M205,225.3c0,0-0.2,0.2-0.7,0.4c-0.5,0.2-1.2,0.5-2,0.8c-1.7,0.7-4.1,1.6-6.8,2.6c-2.6,1-5,1.9-6.8,2.5
				c-0.9,0.3-1.6,0.6-2.1,0.7c-0.5,0.2-0.8,0.2-0.8,0.2c0,0,0.2-0.2,0.7-0.4c0.5-0.2,1.2-0.5,2-0.8c1.7-0.7,4.1-1.6,6.7-2.6
				c2.6-1,5-1.9,6.8-2.5c0.9-0.3,1.6-0.6,2.1-0.7C204.7,225.4,205,225.3,205,225.3z"/>
			<path class="st6" d="M210.4,242.7c0,0.1-0.9,0.5-2.4,1.1c-1.5,0.6-3.6,1.4-5.9,2.3c-2.3,0.9-4.4,1.6-5.9,2.2
				c-1.5,0.5-2.5,0.8-2.5,0.8c0-0.1,0.9-0.5,2.4-1.1c1.5-0.6,3.6-1.4,5.9-2.3c2.3-0.9,4.4-1.6,5.9-2.2
				C209.4,242.9,210.4,242.6,210.4,242.7z"/>
			<path class="st6" d="M222,258.6c0,0.1-0.8,0.4-2.1,1c-1.3,0.5-3.2,1.3-5.2,2c-2.1,0.8-3.9,1.4-5.3,1.9c-1.4,0.5-2.2,0.7-2.2,0.7
				c0-0.1,0.8-0.4,2.1-1c1.3-0.5,3.2-1.3,5.2-2c2.1-0.8,3.9-1.4,5.3-1.9C221.1,258.8,221.9,258.5,222,258.6z"/>
			<path class="st6" d="M241.2,269c0,0.1-0.8,0.4-2.1,1c-1.3,0.5-3.2,1.3-5.2,2c-2.1,0.8-3.9,1.4-5.3,1.9c-1.4,0.5-2.2,0.7-2.2,0.7
				c0-0.1,0.8-0.4,2.1-1c1.3-0.5,3.2-1.3,5.2-2c2.1-0.8,3.9-1.4,5.3-1.9C240.3,269.2,241.2,268.9,241.2,269z"/>
			<path class="st11" d="M299.2,228.6c0,0.1-6,2.9-13.4,6.3c-7.5,3.4-13.5,6-13.6,5.9c0-0.1,6-2.9,13.4-6.3
				C293.1,231.1,299.2,228.5,299.2,228.6z"/>
			<path class="st11" d="M303.1,212.3c0,0.1-4.9,2.4-11.1,5.2c-6.2,2.8-11.2,4.9-11.2,4.8c0-0.1,4.9-2.4,11.1-5.2
				C298.1,214.4,303.1,212.2,303.1,212.3z"/>
			<path class="st11" d="M305,194.1c0,0.1-4.9,2.4-11.1,5.2c-6.2,2.8-11.2,4.9-11.2,4.8c0-0.1,4.9-2.4,11.1-5.2
				C299.9,196.2,304.9,194,305,194.1z"/>
			<path class="st11" d="M306.8,175.9c0,0.1-4.9,2.4-11.1,5.2c-6.2,2.8-11.2,4.9-11.2,4.8c0-0.1,4.9-2.4,11.1-5.2
				C301.7,178,306.7,175.8,306.8,175.9z"/>
			<path class="st11" d="M308.6,157.7c0,0.1-4.9,2.4-11.1,5.2c-6.2,2.8-11.2,4.9-11.2,4.8c0-0.1,4.9-2.4,11.1-5.2
				C303.5,159.7,308.5,157.6,308.6,157.7z"/>
			<path class="st11" d="M305,141.4c0,0.1-4.9,2.4-11.1,5.2c-6.2,2.8-11.2,4.9-11.2,4.8c0-0.1,4.9-2.4,11.1-5.2
				C299.9,143.5,304.9,141.3,305,141.4z"/>
			<path class="st11" d="M305,124c0,0.1-4.9,2.4-11.1,5.2c-6.2,2.8-11.2,4.9-11.2,4.8c0-0.1,4.9-2.4,11.1-5.2
				C299.9,126,304.9,123.9,305,124z"/>
			<path class="st11" d="M303.1,107.5c0,0.1-4.9,2.4-11.1,5.2c-6.2,2.8-11.2,4.9-11.2,4.8c0-0.1,4.9-2.4,11.1-5.2
				C298.1,109.6,303.1,107.4,303.1,107.5z"/>
			<path class="st11" d="M287.5,96.1c0,0.1-3,1.6-6.7,3.2c-3.8,1.7-6.8,3-6.9,2.9c0-0.1,3-1.6,6.7-3.2
				C284.4,97.2,287.5,95.9,287.5,96.1z"/>
			<path class="st11" d="M279.2,89c0,0.1-3,1.6-6.7,3.2c-3.8,1.7-6.8,3-6.9,2.9c0-0.1,3-1.6,6.7-3.2C276,90.2,279.1,88.9,279.2,89z"
				/>
			<path class="st6" d="M201.2,126.6c0,0.1-4.6,2-10.4,4.1c-5.8,2.2-10.6,3.9-10.6,3.8c0-0.1,4.6-2,10.5-4.1
				C196.4,128.2,201.2,126.5,201.2,126.6z"/>
			<path class="st6" d="M207,103c0,0.1-5,2.1-11.3,4.5c-6.3,2.4-11.4,4.2-11.5,4.1c0-0.1,5-2.1,11.3-4.5
				C201.9,104.8,207,102.9,207,103z"/>
			<path class="st6" d="M222.3,79.7c0,0.1-6.4,2.6-14.4,5.6c-8,3-14.5,5.3-14.5,5.2c0-0.1,6.4-2.6,14.4-5.6
				C215.7,81.9,222.2,79.6,222.3,79.7z"/>
			<path class="st1" d="M334.6,228.8c0,0-0.1,0-0.3-0.1c-0.2-0.1-0.5-0.2-0.9-0.4c-0.4-0.2-1-0.3-1.6-0.5c-0.6-0.1-1.4-0.3-2.2-0.3
				c-3.4-0.2-8.4,1-13.3,4.7c-2.5,1.8-4.8,4.2-7.1,7c-2.3,2.8-4.5,5.9-7,9.1c-2.5,3.2-5.4,6.4-9.1,8.8c-3.7,2.5-8,4.3-12.6,5.1
				c-4.6,0.9-9.3,0.6-13.6-0.5c-4.3-1-8.2-2.7-11.9-4.4c-3.7-1.7-7.1-3.4-10.4-4.9c-3.3-1.5-6.5-2.5-9.4-3.2c-3-0.7-5.7-1-8.2-0.9
				c-2.4,0-4.5,0.4-6.1,0.8c-1.6,0.5-2.9,1-3.6,1.4c-0.4,0.2-0.7,0.4-0.9,0.5c-0.2,0.1-0.3,0.2-0.3,0.2c0,0,0.1-0.1,0.3-0.2
				c0.2-0.1,0.5-0.3,0.9-0.5c0.8-0.4,2-1,3.6-1.5c1.7-0.5,3.7-0.9,6.2-0.9c2.4-0.1,5.2,0.2,8.2,0.9c3,0.7,6.2,1.7,9.5,3.2
				c3.3,1.4,6.7,3.1,10.4,4.8c3.7,1.7,7.6,3.4,11.9,4.4c4.2,1,8.9,1.3,13.4,0.4c4.6-0.8,8.8-2.6,12.5-5c3.6-2.4,6.5-5.6,9.1-8.7
				c2.5-3.2,4.8-6.3,7-9.1c2.3-2.8,4.6-5.2,7.2-7c5-3.7,10.1-4.9,13.5-4.6c0.9,0,1.6,0.2,2.3,0.3c0.6,0.2,1.2,0.3,1.6,0.5
				c0.4,0.2,0.7,0.3,0.9,0.4C334.5,228.8,334.7,228.8,334.6,228.8z"/>
			<path class="st1" d="M339.6,176c0,0-0.6,0.1-1.5,0.4c-1,0.3-2.3,1-3.8,2c-1.5,1.1-3.2,2.5-5.1,4c-1.9,1.5-4.2,3-6.8,4.2
				c-5.1,2.5-10.3,3.4-14,3.6c-0.9,0.1-1.8,0-2.5,0.1c-0.7,0-1.4,0-1.9-0.1c-0.5,0-0.9-0.1-1.2-0.1c-0.3,0-0.4-0.1-0.4-0.1
				c0,0,0.1,0,0.4,0c0.3,0,0.7,0,1.2,0c0.5,0,1.2,0,1.9,0c0.7,0,1.6,0,2.5-0.1c3.7-0.3,8.7-1.3,13.8-3.7c2.5-1.2,4.8-2.6,6.7-4.1
				c1.9-1.5,3.6-3,5.1-4c1.5-1.1,2.9-1.7,3.9-2c0.5-0.1,0.9-0.2,1.2-0.3C339.5,176,339.6,176,339.6,176z"/>
			<path class="st1" d="M236.3,194.4c0,0-0.2,0-0.4-0.1c-0.3-0.1-0.7-0.1-1.2-0.3c-1.1-0.3-2.5-0.9-4.2-1.9c-1.7-1-3.6-2.4-5.5-4
				c-2-1.6-4.1-3.5-6.5-5.2c-2.4-1.7-5-2.9-7.5-3.4c-2.5-0.6-4.8-0.8-6.7-0.6c-1.9,0.1-3.5,0.4-4.5,0.7c-1.1,0.3-1.6,0.5-1.6,0.4
				c0,0,0.1-0.1,0.4-0.2c0.3-0.1,0.7-0.3,1.2-0.4c1-0.3,2.6-0.7,4.6-0.8c2-0.1,4.3,0,6.8,0.6c2.5,0.6,5.2,1.8,7.7,3.5
				c2.5,1.7,4.6,3.6,6.6,5.2c2,1.7,3.8,3.1,5.4,4.1c1.7,1,3.1,1.6,4.1,2C235.7,194.2,236.3,194.3,236.3,194.4z"/>
			<path class="st1" d="M236.4,119.5c0,0-0.5,0.2-1.3,0.5c-0.4,0.2-1,0.3-1.6,0.5c-0.6,0.2-1.3,0.4-2.1,0.5
				c-0.8,0.2-1.7,0.3-2.6,0.5c-0.9,0.2-2,0.2-3,0.3c-2.1,0.1-4.5,0.1-7-0.1c-2.5-0.2-4.8-0.7-6.9-1.2c-1-0.3-2-0.6-2.9-0.9
				c-0.9-0.3-1.7-0.6-2.5-0.9c-0.8-0.3-1.4-0.6-2-0.9c-0.6-0.3-1.1-0.5-1.5-0.8c-0.8-0.4-1.2-0.7-1.2-0.7c0,0,0.5,0.2,1.3,0.6
				c0.4,0.2,0.9,0.4,1.5,0.7c0.6,0.3,1.2,0.6,2,0.8c0.8,0.3,1.6,0.6,2.5,0.9c0.9,0.3,1.9,0.6,2.9,0.8c2.1,0.5,4.4,0.9,6.8,1.2
				c2.4,0.2,4.8,0.2,6.9,0.1c1.1-0.1,2.1-0.1,3-0.3c0.9-0.1,1.8-0.3,2.6-0.4c0.8-0.1,1.5-0.3,2.1-0.5c0.6-0.1,1.2-0.3,1.6-0.4
				C235.9,119.6,236.4,119.5,236.4,119.5z"/>
			<path class="st1" d="M335.1,119.3c0,0-0.1,0-0.3-0.2c-0.3-0.1-0.6-0.3-0.9-0.5c-0.4-0.2-0.9-0.5-1.5-0.8c-0.6-0.3-1.2-0.7-2-0.9
				c-0.4-0.2-0.8-0.3-1.2-0.5c-0.4-0.2-0.9-0.3-1.3-0.5c-0.9-0.3-1.9-0.6-3-0.8c-2.1-0.5-4.5-0.8-7-0.8c-2.5,0-4.9,0.3-7,0.7
				c-1.1,0.3-2.1,0.5-3,0.8c-0.5,0.2-0.9,0.3-1.3,0.4c-0.4,0.2-0.8,0.3-1.2,0.5c-0.8,0.3-1.4,0.6-2,0.9c-0.6,0.3-1.1,0.5-1.5,0.8
				c-0.4,0.2-0.7,0.4-0.9,0.5c-0.2,0.1-0.3,0.2-0.3,0.2c0,0,0.1-0.1,0.3-0.2c0.2-0.2,0.5-0.3,0.9-0.6c0.4-0.3,0.9-0.6,1.5-0.8
				c0.6-0.3,1.2-0.7,2-1c0.4-0.2,0.8-0.3,1.2-0.5s0.9-0.3,1.3-0.5c0.9-0.3,1.9-0.6,3-0.8c2.1-0.4,4.5-0.7,7.1-0.7
				c2.5,0,4.9,0.4,7.1,0.9c1.1,0.3,2.1,0.5,3,0.9c0.5,0.2,0.9,0.3,1.3,0.5c0.4,0.2,0.8,0.4,1.2,0.5c0.8,0.3,1.4,0.7,2,1
				c0.6,0.3,1.1,0.6,1.4,0.9c0.3,0.2,0.6,0.4,0.9,0.6C335.1,119.3,335.2,119.3,335.1,119.3z"/>
			<path class="st1" d="M286.8,65.6c0,0-0.2,0.1-0.6,0.3c-0.4,0.2-1,0.5-1.7,0.9c-1.5,0.8-3.6,1.9-6.2,3.2
				c-5.3,2.6-12.8,6.2-21.6,8.4c-4.4,1.1-8.7,1.7-12.7,1.8c-3.9,0.1-7.5-0.3-10.4-0.9c-2.9-0.6-5.2-1.4-6.7-2.1
				c-0.8-0.3-1.3-0.6-1.7-0.8c-0.4-0.2-0.6-0.3-0.6-0.3c0,0,0.2,0.1,0.6,0.2c0.4,0.2,1,0.5,1.8,0.7c1.5,0.6,3.8,1.3,6.7,1.9
				c2.9,0.6,6.4,0.9,10.3,0.8c3.9-0.1,8.2-0.7,12.6-1.8c8.8-2.2,16.2-5.7,21.5-8.3c2.6-1.3,4.8-2.4,6.3-3.1c0.7-0.3,1.3-0.6,1.7-0.8
				C286.6,65.7,286.8,65.6,286.8,65.6z"/>
			<path class="st6" d="M127.9,203.5l26.5,1.2l-1.2,28l-26.5-1.2l-2,46.6l-34.8-1.5l2-46.6l-89.9-3.9l0.1-21.4L97.9,67.2l35.9,1.6
				L127.9,203.5z M36.9,199.5l56.2,2.5l3.7-85l-0.8-0.3l-3.1,6.1L36.9,199.5z"/>
			<g class="st9">
				<path class="st10" d="M127.9,203.7l26.5,1.2l-1.2,28l-26.5-1.2l-2,46.6l-34.8-1.5l2-46.6l-89.9-3.9l0.1-21.4L97.9,67.4l35.9,1.6
					L127.9,203.7z M36.9,199.7l56.2,2.5l3.7-85l-0.8-0.3l-3.1,6.1L36.9,199.7z"/>
			</g>
			<path class="st6" d="M150.1,204.4l26.5,1.2l-1.2,28l-26.5-1.2l-2,46.6l-34.8-1.5l2-46.6L24.2,227l0.1-21.4L120,68.1l35.9,1.6
				L150.1,204.4z M59,200.5l56.2,2.5l3.7-85l-0.8-0.3l-3.1,6.1L59,200.5z"/>
			<path class="st6" d="M24.7,209.7c0,0-0.3,0.2-0.9,0.5c-0.6,0.3-1.4,0.7-2.4,1.2c-2,1-4.9,2.2-8,3.6c-3.2,1.3-6.1,2.5-8.2,3.3
				c-1.1,0.4-1.9,0.7-2.5,0.9c-0.6,0.2-0.9,0.3-0.9,0.3c0,0,0.3-0.2,0.9-0.4c0.7-0.3,1.5-0.6,2.5-1c2.2-0.9,5-2.1,8.1-3.4
				c3.1-1.3,5.9-2.5,8.1-3.5c1-0.4,1.8-0.8,2.5-1C24.4,209.8,24.7,209.7,24.7,209.7z"/>
			<path class="st6" d="M37.6,186c0,0-0.4,0.2-1.2,0.6c-0.8,0.4-1.9,0.9-3.3,1.6c-2.8,1.3-6.7,3-11.1,4.9c-4.4,1.8-8.3,3.5-11.2,4.6
				c-1.4,0.6-2.6,1-3.4,1.3c-0.8,0.3-1.3,0.4-1.3,0.4c0,0,0.4-0.2,1.2-0.6c0.9-0.4,2-0.8,3.4-1.4c2.9-1.2,6.8-2.9,11.2-4.7
				c4.3-1.8,8.2-3.5,11.1-4.7c1.4-0.6,2.5-1.1,3.4-1.4C37.1,186.2,37.6,186,37.6,186z"/>
			<path class="st6" d="M53.3,164.9c0,0-0.4,0.3-1.3,0.6c-0.8,0.4-2,0.9-3.5,1.6c-2.9,1.3-7,3-11.6,4.9c-4.5,1.8-8.7,3.5-11.7,4.6
				c-1.5,0.6-2.7,1-3.6,1.3c-0.8,0.3-1.3,0.4-1.3,0.4c0,0,0.4-0.2,1.3-0.6c0.9-0.4,2.1-0.8,3.5-1.4c3-1.2,7.1-2.9,11.6-4.7
				c4.5-1.8,8.6-3.5,11.6-4.7c1.4-0.6,2.6-1.1,3.5-1.4C52.8,165.1,53.3,164.9,53.3,164.9z"/>
			<path class="st6" d="M116.3,189.3c0,0-0.3,0.2-0.9,0.5c-0.6,0.3-1.4,0.7-2.4,1.1c-2,0.9-4.9,2.2-8.1,3.4
				c-3.2,1.3-6.1,2.4-8.2,3.1c-1.1,0.4-1.9,0.7-2.5,0.9c-0.6,0.2-0.9,0.3-0.9,0.3c0,0,0.3-0.2,0.9-0.4c0.7-0.3,1.5-0.6,2.5-1
				c2.2-0.9,5-2,8.1-3.3c3.1-1.3,6-2.4,8.1-3.3c1-0.4,1.8-0.7,2.5-1C115.9,189.4,116.3,189.3,116.3,189.3z"/>
			<path class="st6" d="M113.7,232.8c0,0-0.3,0.2-0.8,0.5c-0.5,0.3-1.3,0.7-2.3,1.1c-2,0.9-4.7,2.2-7.8,3.4
				c-3.1,1.3-5.9,2.4-7.9,3.1c-1,0.4-1.9,0.7-2.4,0.9c-0.6,0.2-0.9,0.3-0.9,0.3c0,0,0.3-0.2,0.9-0.4c0.6-0.3,1.4-0.6,2.4-1
				c2.1-0.9,4.9-2,7.9-3.3c3-1.3,5.8-2.4,7.9-3.3c0.9-0.4,1.7-0.7,2.4-1C113.4,232.9,113.7,232.8,113.7,232.8z"/>
			<path class="st6" d="M113.4,248c0,0-0.3,0.2-0.8,0.5c-0.5,0.3-1.3,0.7-2.3,1.1c-2,0.9-4.7,2.2-7.8,3.4c-3.1,1.3-5.9,2.4-7.9,3.1
				c-1,0.4-1.9,0.7-2.4,0.9c-0.6,0.2-0.9,0.3-0.9,0.3c0,0,0.3-0.2,0.9-0.4c0.6-0.3,1.4-0.6,2.4-1c2.1-0.9,4.9-2,7.9-3.3
				c3-1.3,5.8-2.4,7.9-3.3c0.9-0.4,1.7-0.7,2.4-1C113,248.1,113.3,248,113.4,248z"/>
			<path class="st6" d="M113,263.3c0,0-0.3,0.2-0.8,0.5c-0.5,0.3-1.3,0.7-2.3,1.1c-2,0.9-4.7,2.2-7.8,3.4c-3.1,1.3-5.9,2.4-7.9,3.1
				c-1,0.4-1.9,0.7-2.4,0.9c-0.6,0.2-0.9,0.3-0.9,0.3c0,0,0.3-0.2,0.9-0.4c0.6-0.3,1.4-0.6,2.4-1c2.1-0.9,4.9-2,7.9-3.3
				c3-1.3,5.8-2.4,7.9-3.3c0.9-0.4,1.7-0.7,2.4-1C112.7,263.4,113,263.2,113,263.3z"/>
			<path class="st6" d="M116.7,173.2c0,0-0.3,0.2-0.9,0.5c-0.6,0.3-1.4,0.7-2.4,1.1c-2,0.9-4.9,2.2-8.1,3.4
				c-3.2,1.3-6.1,2.4-8.2,3.1c-1.1,0.4-1.9,0.7-2.5,0.9c-0.6,0.2-0.9,0.3-0.9,0.3c0,0,0.3-0.2,0.9-0.4c0.7-0.3,1.5-0.6,2.5-1
				c2.2-0.9,5-2,8.1-3.3c3.1-1.3,5.9-2.4,8.1-3.3c1-0.4,1.8-0.7,2.5-1C116.4,173.3,116.7,173.2,116.7,173.2z"/>
			<path class="st6" d="M117.1,157.1c0,0-0.3,0.2-0.9,0.5c-0.6,0.3-1.4,0.7-2.4,1.1c-2,0.9-4.9,2.2-8.1,3.4
				c-3.2,1.3-6.1,2.4-8.2,3.1c-1.1,0.4-1.9,0.7-2.5,0.9c-0.6,0.2-0.9,0.3-0.9,0.3c0,0,0.3-0.2,0.9-0.4c0.7-0.3,1.5-0.6,2.5-1
				c2.2-0.9,5-2,8.1-3.3c3.1-1.3,6-2.4,8.1-3.3c1-0.4,1.8-0.7,2.5-1C116.8,157.2,117.1,157.1,117.1,157.1z"/>
			<path class="st6" d="M117.5,141c0,0-0.3,0.2-0.8,0.4c-0.5,0.3-1.3,0.6-2.3,1.1c-1.9,0.9-4.7,2.1-7.7,3.3c-3,1.2-5.8,2.3-7.8,3
				c-1,0.4-1.8,0.6-2.4,0.8c-0.6,0.2-0.9,0.3-0.9,0.2c0,0,0.3-0.2,0.8-0.4c0.6-0.3,1.4-0.6,2.3-0.9c2.1-0.8,4.8-1.9,7.7-3.1
				c3-1.2,5.7-2.3,7.7-3.2c0.9-0.4,1.7-0.7,2.3-0.9C117.2,141.1,117.5,141,117.5,141z"/>
			<path class="st6" d="M119.3,126c0,0.1-1.7,0.9-4,1.7c-2.2,0.8-4.1,1.4-4.1,1.3c0-0.1,1.7-0.9,4-1.7
				C117.5,126.5,119.3,125.9,119.3,126z"/>
			<path class="st6" d="M69,143c0,0-0.4,0.3-1.3,0.6c-0.8,0.4-2,0.9-3.5,1.6c-2.9,1.3-7,3-11.6,4.9c-4.5,1.8-8.7,3.5-11.7,4.6
				c-1.5,0.6-2.7,1-3.6,1.3c-0.8,0.3-1.3,0.4-1.3,0.4c0,0,0.4-0.2,1.3-0.6c0.9-0.4,2.1-0.8,3.5-1.4c3-1.2,7.1-2.9,11.6-4.7
				c4.5-1.8,8.6-3.5,11.6-4.7c1.4-0.6,2.6-1.1,3.5-1.4C68.5,143.2,69,143,69,143z"/>
			<path class="st6" d="M84.7,121.1c0,0-0.4,0.3-1.2,0.6c-0.8,0.4-2,0.9-3.5,1.6c-2.9,1.3-7,3-11.6,4.9c-4.5,1.8-8.7,3.5-11.7,4.6
				c-1.5,0.6-2.7,1-3.6,1.3c-0.8,0.3-1.3,0.4-1.3,0.4c0,0,0.4-0.2,1.3-0.6c0.9-0.4,2.1-0.8,3.5-1.4c3-1.2,7.1-2.9,11.6-4.7
				c4.5-1.8,8.6-3.5,11.6-4.7c1.4-0.6,2.6-1.1,3.5-1.4C84.2,121.2,84.7,121.1,84.7,121.1z"/>
			<path class="st6" d="M99.2,99.2c0,0-0.4,0.3-1.3,0.6c-0.8,0.4-2,0.9-3.5,1.6c-2.9,1.3-7,3-11.6,4.9c-4.5,1.8-8.7,3.5-11.7,4.6
				c-1.5,0.6-2.7,1-3.6,1.3c-0.8,0.3-1.3,0.4-1.3,0.4c0,0,0.4-0.2,1.3-0.6c0.9-0.4,2.1-0.8,3.5-1.4c3-1.2,7.1-2.9,11.6-4.7
				c4.5-1.8,8.6-3.5,11.6-4.7c1.4-0.6,2.6-1.1,3.5-1.4C98.7,99.3,99.2,99.2,99.2,99.2z"/>
			<path class="st6" d="M114.3,78.1c0,0-0.4,0.3-1.2,0.6c-0.8,0.4-2,0.9-3.5,1.6c-2.9,1.3-7,3-11.6,4.9c-4.5,1.8-8.7,3.5-11.7,4.6
				c-1.5,0.6-2.7,1-3.6,1.3c-0.8,0.3-1.3,0.4-1.3,0.4c0,0,0.4-0.2,1.3-0.6c0.9-0.4,2.1-0.8,3.5-1.4c3-1.2,7.1-2.9,11.6-4.7
				c4.5-1.8,8.6-3.5,11.6-4.7c1.4-0.6,2.6-1.1,3.5-1.4C113.8,78.3,114.3,78.1,114.3,78.1z"/>
			<path class="st1" d="M154.3,110.3c0,0-0.2,0.2-0.5,0.5c-0.3,0.3-0.8,0.8-1.4,1.4c-1.3,1.1-3.3,2.7-6.1,4
				c-2.8,1.3-6.4,2.3-10.6,2.4c-2.1,0-4.2-0.2-6.4-0.7c-2.2-0.5-4.3-1.4-6.5-2.4c-4.3-2.1-8-4.5-11.7-6.2c-3.7-1.7-7.3-2.6-10.4-2.7
				c-3.1-0.1-5.5,0.6-7.1,1.3c-0.8,0.4-1.4,0.7-1.7,1c-0.4,0.3-0.6,0.4-0.6,0.4c0,0,0.2-0.2,0.5-0.4c0.3-0.3,0.9-0.6,1.7-1.1
				c1.5-0.8,4-1.5,7.1-1.5c3.1,0.1,6.8,0.9,10.5,2.7c3.7,1.7,7.5,4.1,11.8,6.2c2.1,1,4.2,1.9,6.4,2.4c2.1,0.5,4.3,0.8,6.3,0.7
				c4.1-0.1,7.7-1,10.5-2.3c2.8-1.3,4.8-2.7,6.2-3.8c0.7-0.5,1.1-1,1.5-1.3C154.2,110.5,154.3,110.3,154.3,110.3z"/>
			<path class="st1" d="M143.3,71.2c0,0-0.3,0.2-1,0.6c-0.7,0.4-1.6,0.8-2.9,1.3c-1.2,0.5-2.7,1.1-4.4,1.6c-1.7,0.5-3.6,0.9-5.6,1.3
				c-2,0.3-4,0.5-5.7,0.6c-1.8,0-3.4,0-4.7-0.1c-1.3-0.1-2.4-0.2-3.1-0.4c-0.7-0.1-1.1-0.2-1.1-0.2c0,0,0.4,0,1.2,0.1
				c0.7,0.1,1.8,0.2,3.1,0.2c1.3,0.1,2.9,0.1,4.7,0c1.8-0.1,3.7-0.3,5.7-0.6c2-0.3,3.9-0.8,5.6-1.3c1.7-0.5,3.2-1,4.4-1.5
				c1.2-0.5,2.2-0.9,2.9-1.2C142.9,71.3,143.3,71.2,143.3,71.2z"/>
			<path class="st1" d="M87.2,159.1c0,0-0.3-0.3-0.7-0.8c-0.5-0.6-1.1-1.3-1.9-2.2c-1.6-1.9-3.9-4.4-6.6-6.9
				c-1.4-1.3-2.8-2.4-4.2-3.2c-1.4-0.8-2.8-1.3-4-1.5c-2.4-0.5-3.9,0.1-3.9,0c0,0,0.1,0,0.3-0.1c0.2-0.1,0.4-0.1,0.8-0.2
				c0.7-0.1,1.7-0.2,2.9,0c1.2,0.2,2.7,0.7,4.1,1.5c1.4,0.8,2.9,1.9,4.2,3.2c2.8,2.6,5,5.1,6.6,7c0.8,1,1.4,1.8,1.8,2.3
				C87,158.7,87.2,159.1,87.2,159.1z"/>
			<path class="st1" d="M150.3,183c0,0-0.1,0.1-0.3,0.2c-0.2,0.1-0.5,0.4-0.9,0.6c-0.8,0.5-2.1,1.2-3.7,1.8
				c-3.2,1.2-8.1,2.1-13.4,1.1c-5.2-1.1-9.4-3.8-11.9-6.2c-1.3-1.2-2.2-2.3-2.7-3.1c-0.3-0.4-0.5-0.7-0.6-0.9
				c-0.1-0.2-0.2-0.3-0.2-0.3c0,0,0.3,0.4,0.9,1.2c0.6,0.8,1.5,1.8,2.8,3c2.5,2.3,6.6,5,11.8,6c5.2,1.1,10,0.2,13.2-0.9
				c1.6-0.6,2.9-1.2,3.7-1.6C149.8,183.2,150.2,183,150.3,183z"/>
			<path class="st1" d="M173.3,233.1c0,0-0.1-0.1-0.2-0.4c-0.2-0.3-0.4-0.6-0.6-1.1c-0.5-1-1.4-2.3-2.7-4c-0.3-0.4-0.7-0.8-1.1-1.3
				c-0.2-0.2-0.4-0.5-0.6-0.7c-0.2-0.2-0.4-0.4-0.7-0.7c-0.5-0.5-0.9-0.9-1.4-1.4c-0.5-0.4-1.1-0.9-1.7-1.4
				c-2.3-1.9-5.2-3.7-8.7-5.2c-3.5-1.4-7.5-2.5-11.9-2.8c-4.4-0.3-9.2,0.4-13.8,2.2c-4.6,1.8-9.1,4.6-13.8,7.2
				c-2.4,1.3-4.8,2.6-7.4,3.7c-2.6,1.1-5.4,1.9-8.3,2.2c-2.9,0.3-5.8,0.1-8.5-0.5c-2.8-0.6-5.4-1.6-7.9-2.7c-5-2.3-9.3-5.2-13.4-8.1
				c-4.1-2.9-7.9-5.7-11.7-7.9c-3.8-2.2-7.6-3.9-11.3-4.8c-3.7-0.9-7.1-1-10.1-0.7c-3,0.3-5.4,1.2-7.3,2.1c-1.9,0.9-3.1,2-4,2.7
				c-0.4,0.4-0.7,0.7-0.9,0.9c-0.2,0.2-0.3,0.3-0.3,0.3s0.1-0.1,0.3-0.3c0.2-0.2,0.5-0.5,0.9-0.9c0.8-0.7,2.1-1.9,4-2.8
				c1.9-1,4.4-1.9,7.4-2.2c3-0.4,6.5-0.3,10.2,0.6c3.7,0.9,7.5,2.6,11.4,4.8c3.9,2.2,7.7,5,11.8,7.9c4.1,2.9,8.4,5.8,13.3,8.1
				c2.5,1.1,5,2.1,7.8,2.7c2.7,0.6,5.6,0.8,8.4,0.5c2.8-0.3,5.6-1.1,8.2-2.1c2.6-1,5-2.3,7.4-3.7c4.7-2.6,9.2-5.4,13.9-7.2
				c1.2-0.4,2.3-0.9,3.5-1.1c0.6-0.2,1.2-0.3,1.8-0.5c0.6-0.1,1.2-0.2,1.8-0.3c2.3-0.4,4.7-0.4,6.9-0.3c4.5,0.3,8.5,1.4,12,2.8
				c3.5,1.5,6.4,3.4,8.7,5.3c0.6,0.5,1.1,0.9,1.7,1.4c0.5,0.5,1,1,1.4,1.4c0.2,0.2,0.5,0.5,0.7,0.7c0.2,0.2,0.4,0.5,0.6,0.7
				c0.4,0.5,0.7,0.9,1.1,1.3c1.3,1.7,2.2,3.1,2.7,4.1c0.3,0.5,0.5,0.8,0.6,1.1C173.3,233,173.3,233.1,173.3,233.1z"/>
			<path class="st1" d="M149.4,266.1c0,0-0.1,0-0.4,0.1c-0.3,0.1-0.7,0.1-1.2,0.2c-0.5,0.1-1.1,0.2-1.9,0.3
				c-0.7,0.1-1.6,0.2-2.5,0.2c-0.5,0-0.9,0-1.4,0.1c-0.5,0-1,0-1.6,0c-1.1,0-2.2-0.1-3.5-0.2c-2.4-0.3-5.1-0.7-7.8-1.5
				c-2.7-0.8-5.2-1.8-7.4-2.9c-1.1-0.6-2.1-1.1-3-1.7c-0.5-0.3-0.9-0.5-1.3-0.8c-0.4-0.3-0.8-0.6-1.2-0.8c-0.8-0.5-1.4-1.1-2-1.5
				c-0.6-0.5-1.1-0.9-1.4-1.2c-0.3-0.3-0.6-0.6-0.9-0.8c-0.2-0.2-0.3-0.3-0.3-0.3c0,0,0.1,0.1,0.3,0.2c0.2,0.2,0.5,0.5,0.9,0.8
				c0.4,0.3,0.9,0.7,1.5,1.2c0.6,0.4,1.2,1,2,1.5c0.4,0.3,0.8,0.5,1.2,0.8c0.4,0.3,0.9,0.5,1.3,0.8c0.9,0.6,2,1.1,3,1.6
				c2.2,1.1,4.7,2.1,7.4,2.9c2.7,0.8,5.3,1.2,7.7,1.5c1.2,0.1,2.4,0.2,3.4,0.2c0.5,0,1.1,0,1.6,0c0.5,0,1,0,1.4,0
				c0.9,0,1.7-0.1,2.5-0.2c0.7,0,1.4-0.1,1.9-0.2c0.5-0.1,0.9-0.1,1.2-0.2C149.3,266.1,149.4,266.1,149.4,266.1z"/>
			<path class="st6" d="M471.5,203.8l26.3-2.6l2.7,27.9l-26.3,2.6l4.5,46.4l-34.7,3.4l-4.5-46.4l-89.5,8.8l-2.9-21.1l75.4-149.6
				l35.8-3.5L471.5,203.8z M380.9,212.7l56-5.5l-8.3-84.6l-0.9-0.2l-2.3,6.4L380.9,212.7z"/>
			<g class="st9">
				<path class="st10" d="M471.5,203.8l26.3-2.6l2.7,27.9l-26.3,2.6l4.5,46.4l-34.7,3.4l-4.5-46.4l-89.5,8.8l-2.9-21.1l75.4-149.6
					l35.8-3.5L471.5,203.8z M380.9,212.7l56-5.5l-8.3-84.6l-0.9-0.2l-2.3,6.4L380.9,212.7z"/>
			</g>
			<path class="st6" d="M493.6,201.6l26.3-2.6l2.7,27.9l-26.4,2.6l4.5,46.4l-34.7,3.4l-4.5-46.4l-89.5,8.8l-2.9-21.1l75.4-149.6
				l35.8-3.5L493.6,201.6z M402.9,210.5l56-5.5l-8.3-84.6l-0.9-0.2l-2.3,6.4L402.9,210.5z"/>
			<path class="st6" d="M370.2,224.5c0,0-0.3,0.2-0.8,0.6c-0.5,0.4-1.3,0.9-2.2,1.5c-1.9,1.2-4.5,2.9-7.5,4.7
				c-3,1.8-5.6,3.3-7.6,4.4c-1,0.5-1.8,1-2.4,1.3c-0.6,0.3-0.9,0.4-0.9,0.4c0,0,0.3-0.2,0.8-0.5c0.6-0.4,1.4-0.8,2.3-1.4
				c2-1.2,4.6-2.8,7.6-4.5c2.9-1.8,5.5-3.3,7.5-4.6c0.9-0.5,1.7-1,2.3-1.4C369.9,224.7,370.2,224.5,370.2,224.5z"/>
			<path class="st6" d="M379.6,199.3c0,0-0.4,0.3-1.1,0.8c-0.7,0.5-1.8,1.2-3.1,2c-2.6,1.7-6.3,3.9-10.3,6.4
				c-4.1,2.4-7.8,4.6-10.5,6.1c-1.4,0.8-2.5,1.4-3.2,1.8c-0.8,0.4-1.2,0.6-1.2,0.6c0,0,0.4-0.3,1.1-0.7c0.8-0.5,1.9-1.1,3.1-1.9
				c2.7-1.6,6.4-3.8,10.4-6.2c4-2.4,7.7-4.6,10.4-6.3c1.3-0.8,2.3-1.4,3.1-1.9C379.2,199.5,379.6,199.2,379.6,199.3z"/>
			<path class="st6" d="M392.2,176.1c0,0-0.4,0.3-1.1,0.8c-0.8,0.5-1.9,1.2-3.2,2c-2.7,1.7-6.6,4-10.8,6.4
				c-4.2,2.5-8.1,4.6-10.9,6.2c-1.4,0.8-2.6,1.4-3.4,1.8c-0.8,0.4-1.2,0.6-1.3,0.6c0,0,0.4-0.3,1.2-0.7c0.8-0.5,1.9-1.1,3.3-1.9
				c2.8-1.6,6.7-3.8,10.9-6.3c4.2-2.5,8-4.7,10.8-6.3c1.3-0.8,2.5-1.4,3.3-1.9C391.8,176.3,392.2,176.1,392.2,176.1z"/>
			<path class="st6" d="M458,191.4c0,0-0.3,0.2-0.8,0.6c-0.5,0.3-1.3,0.8-2.2,1.4c-1.9,1.2-4.5,2.8-7.5,4.5c-3,1.7-5.7,3.2-7.7,4.3
				c-1,0.5-1.8,0.9-2.4,1.2c-0.6,0.3-0.9,0.4-0.9,0.4c0,0,0.3-0.2,0.8-0.5c0.6-0.4,1.4-0.8,2.3-1.3c2-1.2,4.7-2.7,7.6-4.4
				c2.9-1.7,5.5-3.3,7.6-4.4c0.9-0.5,1.7-1,2.3-1.3C457.7,191.6,458,191.4,458,191.4z"/>
			<path class="st6" d="M461.6,234.8c0,0-0.3,0.2-0.8,0.6c-0.5,0.3-1.2,0.8-2.2,1.4c-1.8,1.2-4.4,2.8-7.3,4.5s-5.5,3.2-7.4,4.2
				c-1,0.5-1.7,0.9-2.3,1.2c-0.5,0.3-0.9,0.4-0.9,0.4c0,0,0.3-0.2,0.8-0.5c0.6-0.4,1.3-0.8,2.2-1.3c2-1.2,4.5-2.7,7.4-4.3
				c2.8-1.7,5.4-3.2,7.3-4.4c0.9-0.5,1.6-1,2.2-1.3C461.3,235,461.6,234.8,461.6,234.8z"/>
			<path class="st6" d="M463.4,250c0,0-0.3,0.2-0.8,0.6c-0.5,0.3-1.2,0.8-2.2,1.4c-1.8,1.2-4.4,2.8-7.3,4.5
				c-2.9,1.7-5.5,3.2-7.4,4.2c-1,0.5-1.7,0.9-2.3,1.2c-0.5,0.3-0.9,0.4-0.9,0.4c0,0,0.3-0.2,0.8-0.5c0.6-0.4,1.3-0.8,2.2-1.3
				c2-1.2,4.5-2.7,7.4-4.3c2.8-1.7,5.4-3.2,7.3-4.4c0.9-0.5,1.6-1,2.2-1.3C463,250.1,463.3,249.9,463.4,250z"/>
			<path class="st6" d="M465.1,265.1c0,0-0.3,0.2-0.8,0.6c-0.5,0.3-1.2,0.8-2.2,1.4c-1.8,1.2-4.4,2.8-7.3,4.5
				c-2.9,1.7-5.5,3.2-7.4,4.2c-1,0.5-1.7,0.9-2.3,1.2c-0.5,0.3-0.9,0.4-0.9,0.4c0,0,0.3-0.2,0.8-0.5c0.6-0.4,1.3-0.8,2.2-1.3
				c2-1.2,4.5-2.7,7.4-4.3c2.8-1.7,5.4-3.2,7.3-4.4c0.9-0.5,1.6-1,2.2-1.3C464.8,265.2,465.1,265.1,465.1,265.1z"/>
			<path class="st6" d="M456.2,175.4c0,0-0.3,0.2-0.8,0.6c-0.5,0.3-1.3,0.8-2.2,1.4c-1.9,1.2-4.5,2.8-7.5,4.5
				c-3,1.7-5.7,3.2-7.7,4.3c-1,0.5-1.8,0.9-2.4,1.2c-0.6,0.3-0.9,0.4-0.9,0.4c0,0,0.3-0.2,0.8-0.5c0.6-0.4,1.4-0.8,2.3-1.3
				c2-1.2,4.7-2.7,7.6-4.4c2.9-1.7,5.5-3.3,7.6-4.4c0.9-0.5,1.7-1,2.3-1.3C455.8,175.6,456.1,175.4,456.2,175.4z"/>
			<path class="st6" d="M454.3,159.4c0,0-0.3,0.2-0.8,0.6c-0.5,0.3-1.3,0.8-2.2,1.4c-1.9,1.2-4.5,2.8-7.5,4.5
				c-3,1.7-5.7,3.2-7.7,4.3c-1,0.5-1.8,0.9-2.4,1.2c-0.6,0.3-0.9,0.4-0.9,0.4c0,0,0.3-0.2,0.8-0.5c0.6-0.4,1.4-0.8,2.3-1.3
				c2-1.2,4.7-2.7,7.6-4.4c2.9-1.7,5.5-3.3,7.6-4.4c0.9-0.5,1.7-1,2.3-1.3C454,159.6,454.3,159.4,454.3,159.4z"/>
			<path class="st6" d="M452.4,143.4c0,0-0.3,0.2-0.7,0.6c-0.5,0.3-1.2,0.8-2.1,1.4c-1.8,1.1-4.3,2.7-7.1,4.3
				c-2.8,1.6-5.4,3.1-7.3,4.1c-0.9,0.5-1.7,0.9-2.3,1.2c-0.5,0.3-0.8,0.4-0.9,0.4c0,0,0.3-0.2,0.8-0.5c0.6-0.3,1.3-0.8,2.2-1.3
				c1.9-1.1,4.5-2.6,7.2-4.2c2.8-1.6,5.3-3.1,7.2-4.2c0.9-0.5,1.6-0.9,2.2-1.3C452.1,143.6,452.4,143.4,452.4,143.4z"/>
			<path class="st6" d="M452.1,128.3c0.1,0.1-1.6,1.1-3.7,2.2c-2.1,1.1-3.8,2-3.9,1.9c-0.1-0.1,1.6-1.1,3.7-2.2
				C450.3,129,452.1,128.2,452.1,128.3z"/>
			<path class="st11" d="M404.7,152.2c0,0-0.4,0.3-1.1,0.8c-0.8,0.5-1.9,1.2-3.2,2c-2.7,1.7-6.6,4-10.8,6.4
				c-4.2,2.5-8.1,4.6-10.9,6.2c-1.4,0.8-2.6,1.4-3.4,1.8c-0.8,0.4-1.2,0.6-1.3,0.6c0,0,0.4-0.3,1.2-0.7c0.8-0.5,1.9-1.1,3.3-1.9
				c2.8-1.6,6.7-3.8,10.9-6.3c4.2-2.5,8-4.7,10.8-6.3c1.3-0.8,2.5-1.4,3.3-1.9C404.2,152.4,404.7,152.2,404.7,152.2z"/>
			<path class="st11" d="M417.1,128.3c0,0-0.4,0.3-1.1,0.8c-0.8,0.5-1.9,1.2-3.2,2c-2.7,1.7-6.6,4-10.8,6.4
				c-4.2,2.5-8.1,4.6-10.9,6.2c-1.4,0.8-2.6,1.4-3.4,1.8c-0.8,0.4-1.2,0.6-1.3,0.6c0,0,0.4-0.3,1.2-0.7c0.8-0.5,1.9-1.1,3.3-1.9
				c2.8-1.6,6.7-3.8,10.9-6.3c4.2-2.5,8-4.7,10.8-6.3c1.3-0.8,2.5-1.4,3.3-1.9C416.7,128.5,417.1,128.3,417.1,128.3z"/>
			<path class="st6" d="M428.4,104.6c0,0-0.4,0.3-1.1,0.8c-0.8,0.5-1.9,1.2-3.2,2c-2.7,1.7-6.6,4-10.8,6.4
				c-4.2,2.5-8.1,4.6-10.9,6.2c-1.4,0.8-2.6,1.4-3.4,1.8c-0.8,0.4-1.2,0.6-1.3,0.6c0,0,0.4-0.3,1.2-0.7c0.8-0.5,1.9-1.1,3.3-1.9
				c2.8-1.6,6.7-3.8,10.9-6.3c4.2-2.5,8-4.7,10.8-6.3c1.3-0.8,2.5-1.4,3.3-1.9C428,104.8,428.4,104.6,428.4,104.6z"/>
			<path class="st6" d="M440.4,81.6c0,0-0.4,0.3-1.1,0.8c-0.8,0.5-1.9,1.2-3.2,2c-2.7,1.7-6.6,4-10.8,6.4c-4.2,2.5-8.1,4.6-10.9,6.2
				c-1.4,0.8-2.6,1.4-3.4,1.8c-0.8,0.4-1.2,0.6-1.3,0.6c0,0,0.4-0.3,1.2-0.7c0.8-0.5,1.9-1.1,3.3-1.9c2.8-1.6,6.7-3.8,10.9-6.3
				c4.2-2.5,8-4.7,10.8-6.3c1.3-0.8,2.5-1.4,3.3-1.9C440,81.8,440.4,81.6,440.4,81.6z"/>
			<path class="st1" d="M484.6,107.9c0,0-0.1,0.2-0.4,0.6c-0.3,0.4-0.6,0.9-1.2,1.6c-1.1,1.3-2.9,3.1-5.5,4.8
				c-2.6,1.7-6.1,3.2-10.1,3.9c-2,0.3-4.2,0.4-6.4,0.2c-2.2-0.2-4.5-0.8-6.7-1.5c-4.5-1.5-8.6-3.3-12.5-4.5
				c-3.9-1.2-7.6-1.6-10.6-1.2c-3.1,0.3-5.4,1.4-6.8,2.3c-0.7,0.5-1.2,0.9-1.6,1.2c-0.3,0.3-0.5,0.5-0.5,0.5c0,0,0.2-0.2,0.5-0.5
				c0.3-0.3,0.8-0.8,1.5-1.3c1.4-1,3.8-2.1,6.9-2.5c3.1-0.4,6.9-0.1,10.8,1.1c3.9,1.2,8,3,12.5,4.5c2.2,0.7,4.5,1.3,6.7,1.5
				c2.2,0.2,4.3,0.2,6.3-0.2c4-0.6,7.4-2.1,10-3.7c2.6-1.6,4.4-3.4,5.6-4.7c0.6-0.6,1-1.2,1.3-1.5
				C484.4,108,484.6,107.8,484.6,107.9z"/>
			<path class="st1" d="M468.2,70.7c0,0-0.3,0.3-0.9,0.7c-0.6,0.5-1.5,1-2.7,1.7c-1.1,0.7-2.6,1.4-4.2,2.2c-1.6,0.7-3.4,1.4-5.4,2.1
				c-2,0.6-3.9,1-5.6,1.4c-1.7,0.3-3.3,0.5-4.7,0.6c-1.3,0.1-2.4,0.1-3.2,0.1c-0.8,0-1.2,0-1.2-0.1c0,0,0.4-0.1,1.2-0.1
				c0.7,0,1.8-0.1,3.1-0.2c1.3-0.1,2.9-0.3,4.6-0.6c1.7-0.3,3.6-0.8,5.5-1.4c1.9-0.6,3.7-1.3,5.3-2c1.6-0.7,3-1.4,4.2-2.1
				s2.1-1.2,2.7-1.6C467.8,70.9,468.2,70.6,468.2,70.7z"/>
			<path class="st1" d="M424.9,165.6c0,0-0.3-0.2-0.8-0.7c-0.6-0.5-1.3-1.2-2.2-1.9c-1.8-1.6-4.5-3.8-7.5-5.9
				c-1.5-1.1-3.1-2-4.6-2.6c-1.5-0.6-2.9-0.9-4.1-1c-2.5-0.1-3.9,0.6-3.9,0.5c0,0,0.1-0.1,0.2-0.1c0.2-0.1,0.4-0.2,0.7-0.3
				c0.7-0.2,1.7-0.4,2.9-0.4c1.2,0,2.7,0.3,4.3,0.9c1.5,0.6,3.1,1.5,4.7,2.6c3.1,2.2,5.7,4.4,7.5,6c0.9,0.8,1.6,1.5,2.1,2
				C424.7,165.3,424.9,165.6,424.9,165.6z"/>
			<path class="st1" d="M490.8,180.4c0,0-0.1,0.1-0.3,0.3c-0.2,0.2-0.5,0.4-0.8,0.7c-0.8,0.6-1.9,1.4-3.4,2.3
				c-3,1.7-7.8,3.3-13.1,2.9c-5.3-0.3-9.9-2.5-12.7-4.5c-1.4-1-2.5-2-3.1-2.7c-0.3-0.3-0.6-0.6-0.8-0.8c-0.2-0.2-0.2-0.3-0.2-0.3
				c0,0,0.4,0.4,1.1,1c0.7,0.7,1.8,1.6,3.2,2.5c2.8,1.9,7.3,4,12.5,4.3c5.3,0.3,9.9-1.2,13-2.8c1.5-0.8,2.7-1.6,3.5-2.1
				C490.3,180.7,490.8,180.3,490.8,180.4z"/>
			<path class="st1" d="M520.7,226.7c0,0-0.1-0.1-0.3-0.3c-0.2-0.2-0.4-0.6-0.8-1c-0.6-0.9-1.7-2.1-3.2-3.6
				c-0.4-0.3-0.8-0.7-1.2-1.1c-0.2-0.2-0.4-0.4-0.7-0.6c-0.2-0.2-0.5-0.4-0.8-0.6c-0.5-0.4-1.1-0.8-1.6-1.2
				c-0.6-0.4-1.2-0.7-1.8-1.1c-2.6-1.5-5.7-2.9-9.3-3.9c-3.6-1-7.8-1.4-12.2-1.1c-4.4,0.4-9,1.7-13.3,4.1c-4.3,2.5-8.4,5.8-12.7,9.1
				c-2.2,1.6-4.4,3.3-6.8,4.7c-2.4,1.4-5.1,2.6-7.9,3.3c-2.8,0.7-5.7,0.9-8.5,0.7c-2.8-0.2-5.5-0.8-8.2-1.6
				c-5.2-1.5-10-3.9-14.4-6.2c-4.4-2.3-8.6-4.5-12.7-6.2c-4.1-1.7-8.1-2.8-11.8-3.2c-3.7-0.3-7.2,0-10,0.8c-2.9,0.7-5.2,1.9-6.9,3.1
				c-1.7,1.2-2.8,2.4-3.6,3.3c-0.3,0.4-0.6,0.8-0.8,1c-0.2,0.2-0.3,0.3-0.3,0.3s0.1-0.1,0.2-0.4c0.2-0.2,0.4-0.6,0.7-1
				c0.7-0.8,1.8-2.1,3.5-3.3c1.7-1.2,4.1-2.5,7-3.2c2.9-0.8,6.4-1.2,10.1-0.8c3.8,0.3,7.8,1.5,11.9,3.2c4.1,1.7,8.3,3.9,12.8,6.2
				c4.4,2.3,9.1,4.6,14.3,6.1c2.6,0.8,5.3,1.3,8.1,1.5c2.8,0.2,5.6,0,8.4-0.7c2.8-0.7,5.4-1.9,7.8-3.3c2.4-1.4,4.6-3,6.8-4.7
				c4.3-3.3,8.4-6.6,12.7-9.1c1.1-0.6,2.2-1.2,3.3-1.6c0.6-0.2,1.1-0.5,1.7-0.7c0.6-0.2,1.1-0.4,1.7-0.5c2.3-0.7,4.6-1.1,6.8-1.3
				c4.4-0.4,8.6,0.1,12.3,1.1c3.7,1,6.8,2.4,9.4,4c0.6,0.4,1.3,0.8,1.8,1.2c0.6,0.4,1.1,0.8,1.6,1.2c0.3,0.2,0.5,0.4,0.8,0.6
				c0.2,0.2,0.5,0.4,0.7,0.6c0.4,0.4,0.8,0.8,1.2,1.1c1.5,1.5,2.6,2.7,3.2,3.7c0.3,0.4,0.6,0.8,0.7,1
				C520.6,226.6,520.7,226.7,520.7,226.7z"/>
			<path class="st1" d="M501.6,262.8c0,0-0.1,0.1-0.4,0.2c-0.3,0.1-0.7,0.2-1.1,0.4c-0.5,0.2-1.1,0.4-1.8,0.5
				c-0.7,0.2-1.5,0.4-2.4,0.6c-0.5,0.1-0.9,0.2-1.4,0.3c-0.5,0.1-1,0.1-1.6,0.2c-1.1,0.2-2.2,0.2-3.5,0.3c-2.4,0.1-5.1,0-7.9-0.4
				c-2.8-0.4-5.4-1.1-7.7-1.8c-1.1-0.4-2.3-0.8-3.2-1.2c-0.5-0.2-1-0.4-1.4-0.6c-0.5-0.2-0.9-0.5-1.3-0.7c-0.8-0.4-1.5-0.9-2.2-1.2
				c-0.6-0.4-1.2-0.7-1.6-1c-0.4-0.3-0.7-0.5-1-0.7c-0.2-0.2-0.3-0.3-0.3-0.3c0,0,0.1,0.1,0.4,0.2c0.3,0.2,0.6,0.4,1,0.6
				c0.4,0.3,1,0.6,1.6,1c0.6,0.3,1.4,0.8,2.2,1.2c0.4,0.2,0.8,0.4,1.3,0.6c0.5,0.2,0.9,0.4,1.4,0.6c1,0.4,2.1,0.8,3.2,1.2
				c2.3,0.7,4.9,1.4,7.7,1.8c2.8,0.4,5.4,0.5,7.9,0.4c1.2-0.1,2.4-0.1,3.4-0.3c0.5-0.1,1.1-0.1,1.5-0.2c0.5-0.1,1-0.2,1.4-0.2
				c0.9-0.1,1.7-0.3,2.4-0.5c0.7-0.1,1.3-0.3,1.8-0.5c0.5-0.1,0.8-0.2,1.1-0.3C501.5,262.8,501.6,262.8,501.6,262.8z"/>
			<path class="st12" d="M336.8,146.9l-5.5-0.9L297,135l-20.1-5.8c-4.7-1.6-10.8-2.2-17.4,1.2c-9.5,4.8-35.6,29.2-35.6,29.2
				l18.8,19.4l-8.9,39.3c9.9,28.2,29.4,31.5,29.4,31.5s12.8,1.1,27.9-4.6c18.1-6.9,37-23,39.4-30c1.4-4.2,2.6-12.9,3.5-22.8
				l28.6-11.6l7.7-39.5L336.8,146.9z"/>
			<path class="st10" d="M295.1,216.9c0,0-0.1,0.1-0.3,0.2c-0.2,0.1-0.5,0.4-0.9,0.6c-0.8,0.5-1.9,1.2-3.4,1.8
				c-3,1.3-7.7,2.3-12.7,1.2c-5-1.1-8.8-3.9-11-6.4c-1.1-1.2-1.9-2.3-2.3-3.1c-0.3-0.4-0.4-0.7-0.5-0.9c-0.1-0.2-0.2-0.3-0.2-0.3
				c0,0,0.3,0.4,0.8,1.2c0.5,0.8,1.3,1.8,2.4,3c2.2,2.4,6,5.1,10.9,6.2c4.9,1.1,9.5,0.2,12.5-1.1c1.5-0.6,2.7-1.2,3.5-1.7
				C294.7,217.2,295.1,216.9,295.1,216.9z"/>
			<path class="st10" d="M284.2,136.6c0,0,0,0.1,0.1,0.2c0,0.2,0.1,0.3,0.1,0.6c0.1,0.5,0.3,1.2,0.5,2.2c0.4,1.9,1,4.6,1.1,8.1
				c0.1,1.7,0,3.6-0.3,5.6c-0.4,2-1.1,4.1-2.3,6.1c-1.2,2-2.8,3.8-4.7,5.4c-1.9,1.7-3.9,3.2-6,4.8c-4.5,3.4-8.8,6.4-12.7,9.1
				c-3.9,2.7-7.3,5.2-10,7.3l-0.1,0.1l-0.1-0.1c-2.4-2-4.3-3.7-5.5-4.9c-0.6-0.6-1-1.1-1.3-1.5c-0.1-0.2-0.2-0.3-0.3-0.4
				c-0.1-0.1-0.1-0.2-0.1-0.2c0,0,0.2,0.2,0.4,0.5c0.3,0.3,0.7,0.8,1.3,1.5c1.2,1.2,3.1,2.9,5.6,4.8h-0.2c2.7-2.1,6.1-4.6,10-7.4
				c3.9-2.8,8.2-5.8,12.7-9.2c2.1-1.6,4.1-3.1,6-4.8c1.8-1.6,3.5-3.4,4.6-5.3c1.2-1.9,1.9-4,2.2-6c0.4-2,0.4-3.9,0.4-5.6
				c-0.1-3.4-0.7-6.2-1-8.1c-0.2-0.9-0.3-1.6-0.4-2.2c0-0.2-0.1-0.4-0.1-0.6C284.2,136.7,284.2,136.6,284.2,136.6z"/>
			<path class="st10" d="M433.2,154.4c8-6.9,10.8-19.3,6.3-28.9c-3.8-0.4-7.5-0.8-11.3-1.2c5.7-3,9.2-9.9,8.2-16.3
				c-6.1,6.6-16.7,8.5-24.7,4.5c-5.3-2.6-9.6-7.5-15.4-8.5c-5.3-0.9-10.5,1.5-15.5,3.3c-5,1.8-11.2,2.8-15.3-0.6
				c-3.3-2.7-4.3-7.3-4.1-11.5c0.2-4.2,1.4-8.4,1.7-12.6c0.5-8.3-3.1-16.7-9.2-22.3c-1.9-6-6.5-11.2-12.3-13.7
				c-7.1-3-15.7-1.9-21.8,2.8c-2.5,1.9-4.6,4.4-7.4,5.8c-3.2,1.6-6.9,1.6-10.3,2.4c-3.4,0.8-7,3.1-7.4,6.6l-1.4,7.2
				c-0.2,0.5-0.5,1-0.8,1.5c-2.9,5.1-8.9,8.5-10.2,14.2c-0.7,3.2,0.2,6.7-0.9,9.8c-1.4,4.1-5.9,6.4-7.9,10.2
				c-2.8,5.3-0.9,14.4,3.6,18.3c4.5,3.9,13.9,8,19.7,9.2c1.6-6.1,3-12.6,4.3-19.2c2.4,2.3,4.9,4.5,7.4,6.6
				c6.5,5.7,13.1,11.4,17.7,18.7c8.6,13.9,8.7,32.4,19.5,44.7c2.1,2.4,4.7,4.6,7.8,5.5c3.1,0.9,6.7,0.4,9-1.8c2.7-2.7,3-7.2,6-9.5
				c3.9-3.1,9.7-0.6,13.9,2.1c3.1,2,6.1,4,9.6,5.1c3.5,1.1,7.5,1,10.5-1.1c3-2.1,4.3-6.6,2.1-9.6c-0.9-1.2-2.1-2-3-3.2
				c-0.8-1.2-1.1-3.1,0.1-3.9c1.3-1,3.1,0,4.5,0.8c6.8,4,15.3,4.7,22.7,2c7.4-2.7,13.3-8.9,15.9-16.3
				C440.9,156.4,436.9,155.9,433.2,154.4z"/>
			<path class="st10" d="M426.2,92.3c0,0,0.4,0.3,1,0.9c0.6,0.6,1.6,1.6,2.3,3.1c0.4,0.8,0.7,1.6,0.9,2.7c0.1,1,0.1,2.2-0.4,3.3
				c-0.5,1.1-1.3,2.2-2.4,3c-0.6,0.4-1.3,0.6-2,0.7c-0.7,0.1-1.5,0-2.2-0.3c-2.9-1.2-4.4-4.6-7.6-6.1c-3.1-1.6-7.1-1.7-10.9-0.9
				c-3.8,0.9-7.5,2.9-11.3,5c-3.7,2.1-7.7,4.4-12.3,5.1c-2.3,0.4-4.6,0.4-6.8,0c-1.1-0.3-2.2-0.6-3.1-1.2c-1-0.5-1.9-1.2-2.7-2
				c-1.6-1.5-2.7-3.4-3.4-5.4c-0.8-2-1.2-4-1.4-6c-0.4-4-0.1-7.7,0-11.3c0.1-3.5-0.1-6.8-1-9.7c-0.4-1.4-0.9-2.8-1.5-4
				c-0.6-1.2-1.2-2.3-1.9-3.3c-1.4-1.9-2.8-3.4-4.1-4.5c-1.3-1.1-2.4-1.8-3.1-2.3c-0.4-0.2-0.6-0.4-0.9-0.5
				c-0.2-0.1-0.3-0.2-0.3-0.2c0,0,0.1,0,0.3,0.2c0.2,0.1,0.5,0.3,0.9,0.5c0.8,0.5,1.9,1.1,3.1,2.2c1.3,1.1,2.7,2.6,4.1,4.5
				c0.7,1,1.4,2.1,2,3.3c0.6,1.2,1.1,2.5,1.6,4c0.9,2.9,1.1,6.2,1,9.7c0,3.5-0.3,7.3,0.1,11.2c0.2,2,0.6,3.9,1.4,5.9
				c0.7,1.9,1.8,3.8,3.3,5.2c0.8,0.7,1.6,1.4,2.6,1.9c0.9,0.5,2,0.9,3,1.1c2.1,0.5,4.4,0.5,6.6,0c4.5-0.8,8.4-3,12.2-5.1
				c3.7-2.1,7.4-4.2,11.4-5.1c1.9-0.4,3.9-0.6,5.8-0.5c0.9,0,1.9,0.2,2.8,0.5c0.9,0.3,1.7,0.6,2.5,1c3.3,1.6,4.8,5,7.5,6.1
				c1.4,0.6,2.9,0.4,4-0.3c1.1-0.7,1.9-1.7,2.4-2.8c0.5-1.1,0.5-2.2,0.4-3.2c-0.1-1-0.5-1.9-0.8-2.6c-0.8-1.5-1.6-2.5-2.2-3.1
				c-0.3-0.3-0.6-0.5-0.7-0.7C426.3,92.4,426.2,92.3,426.2,92.3z"/>
			<path class="st10" d="M296.9,138c0,0,0-0.1-0.1-0.4c0-0.2-0.1-0.6-0.2-1c-0.2-0.9-0.8-2.2-1.9-3.5c-1.2-1.3-2.9-2.7-5.2-3.6
				c-2.3-1-5.1-1.6-8.3-2.2c-3.1-0.6-6.6-1.3-9.8-3.4c-3.1-2.1-5.6-5.7-6.3-9.9c-0.6-4.2,0.7-8.9,3.9-12.3c3.3-3.4,7.9-5,11.7-8
				c0.9-0.8,1.8-1.6,2.5-2.5c0.7-1,1.2-2,1.5-3.1c0.6-2.2,0.6-4.6,0.8-6.9c0.1-1.1,0.3-2.3,0.6-3.4c0.3-1.1,0.9-2.1,1.7-3
				c1.5-1.7,3.6-2.6,5.7-3.1c2-0.6,4.1-1,6-1.5c1.9-0.5,3.7-1.2,5.2-2.3c1.5-1,2.8-2.3,3.9-3.7c1.1-1.3,2.1-2.7,2.9-4
				c1.7-2.7,3.2-5.1,4.8-7.1c1.6-2,3.2-3.5,4.6-4.6c1.5-1,2.7-1.6,3.6-1.9c0.9-0.3,1.4-0.3,1.4-0.3c0,0-0.5,0.1-1.4,0.4
				c-0.9,0.3-2.2,0.9-3.6,1.9c-1.4,1-3,2.6-4.5,4.6c-1.6,2-3,4.4-4.8,7.1c-0.9,1.3-1.8,2.7-2.9,4.1c-1.1,1.3-2.4,2.7-4,3.7
				c-1.5,1.1-3.4,1.9-5.3,2.4c-1.9,0.5-3.9,0.9-6,1.5c-2,0.6-4,1.4-5.5,3c-0.7,0.8-1.2,1.8-1.6,2.8c-0.3,1-0.5,2.2-0.6,3.3
				c-0.2,2.3-0.1,4.6-0.8,7c-0.3,1.2-0.9,2.3-1.6,3.3c-0.7,1-1.6,1.8-2.6,2.6c-1.9,1.5-4.1,2.7-6.1,3.9c-2,1.2-4,2.5-5.6,4.1
				c-3.1,3.3-4.5,7.9-3.9,12c0.6,4.1,3,7.6,6.1,9.7c3.1,2.1,6.6,2.7,9.7,3.4c3.1,0.6,6,1.1,8.3,2.2c2.3,1,4.1,2.4,5.3,3.8
				c1.2,1.4,1.7,2.7,1.9,3.6c0.1,0.5,0.2,0.8,0.2,1.1C296.9,137.9,296.9,138,296.9,138z"/>
			<path class="st12" d="M360,67c0,0-0.2,0-0.6-0.2c-0.4-0.1-0.9-0.3-1.6-0.6c-1.3-0.6-3-1.6-4.7-3.1c-1.7-1.4-2.9-3-3.7-4.2
				c-0.4-0.6-0.7-1.1-0.9-1.5c-0.2-0.4-0.3-0.6-0.2-0.6c0.1,0,0.5,0.7,1.4,1.9c0.8,1.1,2.1,2.7,3.8,4.1c1.6,1.4,3.3,2.5,4.6,3.1
				C359.2,66.6,360.1,66.9,360,67z"/>
			<path class="st12" d="M386.3,120.9c0,0-0.5-0.1-1.4-0.3c-0.9-0.2-2.2-0.4-3.8-0.5c-1.6-0.1-3.6,0-5.8,0.2
				c-2.2,0.2-4.6,0.4-7.1,0.3c-2.5-0.1-4.9-0.4-7-1.3c-2-0.9-3.6-2.1-4.7-3.4c-1.1-1.3-1.6-2.6-1.8-3.5c-0.1-0.5-0.2-0.8-0.2-1.1
				c0-0.2,0-0.4,0-0.4c0,0,0.1,0.5,0.3,1.4c0.3,0.9,0.8,2.1,1.9,3.3c1.1,1.2,2.6,2.4,4.6,3.3c2,0.8,4.4,1.2,6.8,1.2
				c2.5,0.1,4.9-0.2,7-0.3c2.2-0.1,4.1-0.2,5.8-0.1c1.7,0.1,3,0.4,3.9,0.6c0.4,0.1,0.8,0.2,1,0.3
				C386.2,120.9,386.3,120.9,386.3,120.9z"/>
			<path class="st12" d="M433,156.9c0,0-0.1,0-0.2,0.1c-0.2,0.1-0.4,0.2-0.7,0.2c-0.6,0.2-1.6,0.2-2.8-0.1c-1.2-0.4-2.6-1.1-3.8-2.4
				c-1.3-1.3-2.2-3.1-3.1-5.1c-0.9-2-1.6-4.4-3-6.5c-0.7-1.1-1.6-2.1-2.5-3.1c-1-0.9-2.1-1.8-3.4-2.5c-5-3-11.5-4.2-18.2-3.8
				c-6.7,0.3-13,1.7-18.8,2.1c-5.8,0.5-11.2-0.1-15.4-1.6c-4.2-1.4-7.2-3.7-8.8-5.5c-0.4-0.4-0.8-0.9-1.1-1.3
				c-0.3-0.4-0.5-0.7-0.7-1c-0.2-0.3-0.3-0.5-0.4-0.6c-0.1-0.1-0.1-0.2-0.1-0.2c0,0,0.1,0.1,0.2,0.2c0.1,0.2,0.2,0.4,0.4,0.6
				c0.2,0.3,0.4,0.6,0.7,1c0.3,0.4,0.6,0.8,1.1,1.2c1.7,1.8,4.6,4,8.8,5.3c4.2,1.4,9.4,2,15.2,1.5c5.8-0.4,12.1-1.7,18.8-2.1
				c6.7-0.4,13.3,0.9,18.4,3.9c1.3,0.7,2.4,1.7,3.4,2.6c1,1,1.9,2,2.5,3.1c1.4,2.2,2.1,4.6,3,6.6c0.8,2,1.7,3.8,3,5.1
				c1.2,1.3,2.5,2,3.7,2.4c1.2,0.4,2.1,0.3,2.8,0.2C432.6,157.1,433,156.9,433,156.9z"/>
			<path class="st13" d="M308.5,67c-3.1-0.1-5.7,2.2-6,5.3l-6.4,66.6c-1.1,9.4,11.1,29.5,21.2,30.6c10.1,1.1,11.1-3.8,12.4-12.7
				c2.2-14.8,2.9-20.4,2.9-20.3c0,0,13.1-0.4,17.9-16.8c2.4-8.1,3.8-21.8,4.5-33c0.7-10.1-4.3-23.2-14.4-23.5L308.5,67z"/>
			<path class="st10" d="M350.7,95.5c-0.1,1.1-1.2,2-2.3,1.9c-1.2-0.1-2.1-1.1-1.9-2.2c0.1-1.1,1.2-2,2.3-1.9
				C349.9,93.4,350.8,94.4,350.7,95.5z"/>
			<path class="st10" d="M351.6,91.2c-0.2,0.3-2-0.8-4.3-0.6c-2.3,0.1-3.9,1.4-4.2,1.2c-0.1-0.1,0.1-0.6,0.8-1.2
				c0.7-0.6,1.9-1.2,3.3-1.3c1.4-0.1,2.7,0.4,3.4,0.8C351.4,90.6,351.7,91.1,351.6,91.2z"/>
			<path class="st10" d="M330.3,96.7c-0.3,0.3-1.9-1-4.2-1c-2.3-0.1-4.1,1.1-4.3,0.8c-0.1-0.1,0.2-0.6,0.9-1.1c0.7-0.5,2-1,3.5-1
				c1.4,0,2.6,0.6,3.3,1.2C330.2,96.1,330.5,96.6,330.3,96.7z"/>
			<path class="st10" d="M334.6,109c0-0.1,1.5-0.2,3.8-0.2c0.6,0,1.2,0,1.3-0.4c0.2-0.4,0-1.1-0.2-1.8c-0.4-1.5-0.7-3.1-1.1-4.7
				c-1.6-6.7-2.6-12.2-2.4-12.2c0.3-0.1,1.8,5.3,3.3,12c0.4,1.6,0.7,3.2,1.1,4.7c0.1,0.7,0.4,1.5,0,2.3c-0.2,0.4-0.7,0.7-1.1,0.7
				c-0.4,0.1-0.7,0-1,0C336.1,109.3,334.6,109.1,334.6,109z"/>
			<path class="st14" d="M332.7,136.4c0,0-11.3-0.8-21.5-8.9c0,0,4.1,12.2,21,12.8L332.7,136.4z"/>
			<path class="st10" d="M330.7,92.8c-0.4,0.6-2.6-0.3-5.3-0.6c-2.7-0.4-5-0.1-5.3-0.7c-0.1-0.3,0.4-0.8,1.4-1.2
				c1-0.4,2.5-0.6,4.1-0.4c1.6,0.2,3,0.8,3.9,1.4C330.4,91.9,330.8,92.5,330.7,92.8z"/>
			<path class="st10" d="M351.2,88.1c-0.4,0.5-2,0.1-3.9,0.2c-1.9,0-3.5,0.5-3.9,0c-0.2-0.3,0.1-0.8,0.7-1.3c0.7-0.5,1.8-1,3.1-1
				c1.3,0,2.5,0.4,3.2,0.9C351.2,87.3,351.4,87.8,351.2,88.1z"/>
			<path class="st14" d="M329,113.2c1.1-0.7,2.4-1,3.6-0.8c0.6,0.1,1.3,0.4,1.7,0.9c0.5,0.6,0.6,1.6,0.6,2.4c0,0.5,0,1-0.2,1.5
				c-0.2,0.5-0.5,0.9-1,1.1c-0.5,0.2-1,0.2-1.6,0.1c-0.9-0.1-1.7-0.4-2.4-0.9c-0.7-0.5-1.3-1.3-1.4-2.1c-0.1-0.9,0.4-1.8,1.2-2.1"/>
			<path class="st10" d="M335.3,118.3c-0.2,0.1-0.5-0.4-1-1.1c-0.6-0.7-1.4-1.6-2.5-2.2c-1.1-0.6-2.3-0.9-3.2-1.1
				c-0.9-0.1-1.5-0.1-1.5-0.3c0-0.2,0.5-0.5,1.5-0.6c1-0.1,2.4,0.1,3.8,0.9c1.4,0.8,2.3,1.9,2.7,2.8
				C335.4,117.6,335.5,118.2,335.3,118.3z"/>
			<path class="st10" d="M295.2,134.3c5.5-1.1,9.7-5.8,11.6-11.1c1.9-5.3,1.8-11,1.3-16.6c-0.1-0.7-0.2-1.5-0.8-2
				c-0.8-0.6-2-0.1-2.9,0.4c-3.5,2.1-6.8,4.4-10,7c-2.9,2.4-5.9,5.1-7,8.7c-1.7,5.5,1.9,12.1,7.5,13.6"/>
			<path class="st13" d="M421.6,133l-25.9-41.7l-7.2-14.7c0,0-2.3-3-4.7-5.6c-3.9-4.2-7.7-0.9-7.7-0.9s-0.6-1.6-2.6-1.6
				c-2.4,0-3.6,1.8-3.6,1.8s-1.1-1.2-4-1.4c-0.6,0-1.3,0.2-1.9,0.6c-1-0.8-2.7-2.1-4.4-1.4c-1.3,0.5-9.4,6.6-11.4,9.7
				c-1,1.5,0.8,3.5,3.3,2.6c1.1-0.4,2.2-0.7,2.9-1.2c1.3-0.8,2-1.6,2-1.6s-2,3.6,0,4.2c0.8,0.3,2.6,0.1,3.8-0.9
				c0.8-0.7,1.7-1.5,2.5-2.3c0,0-0.1,0.1-0.1,0.1c-1.1,1.7,1.8,4.1,3.2,3.1c0.7-0.5,1.3-1,1.9-1.5c3.3,2.4-1.3,5.5-3.2,5.3
				c-3-0.2-6.5-0.2-8.9,0c-1.7,0.1-3.2,0.5-4.1,1.5c-1.1,1.1,0.1,3.5,1.6,3.7c2.8,0.4,6.5,1.1,10.2,2c4.4,1.1,16,4.9,16,4.9l1.1,0.9
				l15.8,38.5l-27,5.7l-6,34.2l48.7-13.2C423,158.1,428.2,143.4,421.6,133z"/>
			<path class="st14" d="M379.5,97.7c0,0-0.2,0-0.6-0.2c-0.4-0.1-1-0.3-1.7-0.5c-1.6-0.5-3.7-1.1-6.4-1.9c-1.4-0.4-2.8-0.9-4.4-1.3
				c-1.6-0.5-3.3-1-5.1-1.5c-1.8-0.5-3.7-0.9-5.7-1.2c-1-0.2-2.1-0.1-3.1-0.6c-0.3-0.1-0.5-0.3-0.7-0.5c-0.1-0.1-0.2-0.2-0.2-0.4
				l-0.1-0.4c-0.1-0.5-0.1-1.1,0.1-1.7c0.2-0.6,0.6-1,1.1-1.3c0.5-0.3,1-0.4,1.5-0.6c1-0.3,2.1-0.4,3.1-0.4c2.1,0,4,0.3,5.8,0.2
				c0.9,0,1.8-0.1,2.7-0.3c0.9-0.2,1.7-0.4,2.5-0.6c1.6-0.4,3.2-0.7,4.6-0.6c1.4,0.1,2.7,0.5,3.7,0.9c1,0.4,1.9,0.9,2.6,1.3
				c0.7,0.4,1.2,0.7,1.6,0.9c0.3,0.2,0.5,0.3,0.5,0.4c0,0-0.2-0.1-0.6-0.3c-0.4-0.2-0.9-0.5-1.6-0.9c-0.7-0.4-1.6-0.8-2.6-1.2
				c-1-0.4-2.3-0.8-3.7-0.9c-1.4-0.1-2.9,0.2-4.5,0.6c-0.8,0.2-1.6,0.5-2.5,0.6c-0.9,0.2-1.8,0.3-2.7,0.3c-1.9,0.1-3.9-0.2-5.9-0.2
				c-1,0-2,0.1-3,0.4c-1,0.3-2.1,0.7-2.4,1.6c-0.2,0.5-0.1,1-0.1,1.5l0,0.4c0,0.1,0.1,0.2,0.2,0.3c0.2,0.2,0.3,0.3,0.6,0.4
				c0.9,0.4,1.9,0.4,3,0.5c2,0.3,3.9,0.7,5.8,1.2c1.8,0.5,3.5,1,5.1,1.5c1.6,0.5,3.1,1,4.4,1.4c2.7,0.8,4.8,1.5,6.4,2
				c0.7,0.2,1.3,0.4,1.7,0.6C379.3,97.6,379.5,97.7,379.5,97.7z"/>
			<path class="st14" d="M359.5,68.1c0,0.1-1.2,0.8-3.1,2.2c-0.9,0.7-2,1.6-3.1,2.7c-1.1,1.1-2.3,2.3-3.6,3.5
				c-0.7,0.6-1.3,1.2-1.5,2c-0.1,0.4,0,0.8,0.1,1.1c0.2,0.3,0.5,0.5,0.8,0.6c0.7,0.2,1.4,0.2,2.1,0c0.7-0.1,1.3-0.3,1.8-0.5
				c2.2-0.9,3.2-2,3.2-1.9c0,0-0.2,0.3-0.7,0.7c-0.5,0.4-1.3,1-2.4,1.5c-0.5,0.2-1.2,0.4-1.9,0.6c-0.7,0.1-1.5,0.2-2.3,0
				c-0.4-0.1-0.8-0.4-1-0.8c-0.2-0.4-0.3-0.9-0.2-1.3c0.2-0.9,0.9-1.6,1.6-2.2c1.4-1.2,2.5-2.4,3.6-3.5c1.1-1.1,2.2-2,3.2-2.7
				c1-0.7,1.8-1.2,2.4-1.5C359.1,68.3,359.4,68.1,359.5,68.1z"/>
			<path class="st14" d="M369.4,71.4c0,0-0.3,0.4-0.9,1.1c-0.7,0.7-1.5,1.7-2.6,2.9c-1.1,1.2-2.4,2.6-3.9,4.2
				c-0.8,0.8-1.6,1.6-2.7,2.1c-0.5,0.3-1.2,0.5-1.8,0.5c-0.6,0-1.3-0.2-1.8-0.7c-0.3-0.3-0.4-0.6-0.4-1c0-0.4,0-0.7,0.1-1
				c0.2-0.6,0.5-1.2,0.8-1.7l0,0l0,0c1.4-1.5,2.7-2.9,3.9-4.2c1.2-1.3,2.3-2.3,3.3-3.2c0.5-0.4,0.9-0.8,1.4-1.1
				c0.5-0.2,0.9-0.2,1.3-0.3c0.7,0,1.1,0,1.1,0.1c0,0-0.4,0-1.1,0c-0.3,0.1-0.8,0.1-1.2,0.3c-0.4,0.2-0.8,0.6-1.3,1.1
				c-0.9,0.9-2,1.9-3.2,3.2c-1.1,1.3-2.4,2.7-3.8,4.2l0,0c-0.3,0.5-0.6,1-0.8,1.6c-0.1,0.3-0.1,0.6-0.1,0.9c0,0.3,0.1,0.5,0.3,0.8
				c0.4,0.4,1,0.6,1.5,0.6c0.6,0,1.1-0.2,1.6-0.4c1-0.5,1.9-1.2,2.6-2c1.5-1.6,2.8-3,4-4.2c1.1-1.1,2-2.1,2.7-2.8
				c0.3-0.3,0.5-0.5,0.8-0.7C369.2,71.5,369.3,71.4,369.4,71.4z"/>
			<path class="st14" d="M381.5,75.2c0,0,0,0.2-0.3,0.5c-0.3,0.2-0.8,0.4-1.3,0.3c-0.6-0.1-0.9-0.5-1.1-0.8
				c-0.2-0.3-0.2-0.5-0.1-0.5c0.1,0,0.2,0.2,0.4,0.4c0.2,0.2,0.5,0.5,1,0.5c0.4,0.1,0.8,0,1.1-0.2C381.3,75.3,381.4,75.2,381.5,75.2
				z"/>
			<path class="st14" d="M382.4,78.9c-0.1,0.1-0.7-0.5-1.2-1.4c-0.5-0.9-0.8-1.7-0.7-1.7c0.1,0,0.5,0.7,1,1.5
				C382.1,78.1,382.5,78.8,382.4,78.9z"/>
			<path class="st14" d="M384.2,93c0,0-0.4-0.6-0.8-1.6c-0.4-1.1-0.7-2.6-0.6-4.3c0-1.7,0.4-3.3,0.8-4.3c0.4-1.1,0.8-1.6,0.8-1.6
				c0.1,0-1.1,2.6-1.1,5.9C383.1,90.4,384.3,93,384.2,93z"/>
			<path class="st14" d="M405.5,147.8c-0.1,0-0.2-0.8-0.6-2.1c-0.2-0.6-0.5-1.4-0.9-2.2c-0.4-0.8-1-1.6-1.7-2.4
				c-0.7-0.8-1.4-1.4-2.1-1.9c-0.7-0.5-1.4-0.9-2-1.2c-1.2-0.6-2.1-0.8-2-0.8c0,0,0.2,0,0.6,0.1c0.4,0.1,0.9,0.2,1.6,0.5
				c0.6,0.3,1.4,0.6,2.1,1.2c0.8,0.5,1.5,1.2,2.2,2c0.7,0.8,1.2,1.7,1.7,2.5c0.4,0.8,0.7,1.6,0.9,2.3c0.2,0.7,0.3,1.2,0.3,1.6
				C405.5,147.6,405.5,147.8,405.5,147.8z"/>
			<path class="st13" d="M315,224.1c-3.5-0.7-6.6,0.8-6.6,0.8c-3.5-1.6-7.9,1.1-7.9,1.1c-1.3-0.6-8.9,4.4-8.9,4.4l-9.6,4.5L231,197
				l14.5-15.1l-20.3-21.1l-23.8,24.5c-3,3.1-4.5,7.2-4.7,11.5c-0.6,9.3,4.7,18,13,22.2l60.2,30.9c0,0,6.4-0.2,13.7-2.1
				c5.2-1.4,14.1-5.3,14.1-5.3s0,0.3,1.6,3.3c2.9,5.5,7-0.4,7-0.4s0.9,2,1.6,2.7c3.6,3.5,6.1-1.2,6.1-1.2s1.1,1.9,4.3,0.5
				c3.2-1.4-0.5-11.1-0.5-11.1s1.1,2.1,3.2-0.6C323,233,318.4,224.8,315,224.1z"/>
			<path class="st14" d="M307.7,225.4c0,0,0.2-0.1,0.7-0.3c0.4-0.1,1.1-0.2,1.9,0.1c0.8,0.2,1.7,0.6,2.6,1.3
				c0.4,0.3,0.9,0.7,1.3,1.1c0.4,0.5,0.7,1,1,1.5c1.1,2.2,1.9,4.3,2.3,5.9c0.2,0.8,0.4,1.4,0.5,1.8c0.1,0.4,0.1,0.7,0.1,0.7
				c-0.1,0-0.3-0.9-0.9-2.5c-0.5-1.5-1.3-3.6-2.4-5.8c-0.3-0.5-0.6-1-0.9-1.5c-0.4-0.4-0.8-0.8-1.2-1.1c-0.8-0.6-1.7-1.1-2.4-1.3
				C308.7,225,307.8,225.5,307.7,225.4z"/>
			<path class="st14" d="M313.9,246.8c0,0-0.2-0.3-0.4-0.9c-0.3-0.6-0.7-1.5-1.1-2.4c-0.9-2.1-2.3-4.8-3.6-8
				c-0.6-1.6-1.2-3.1-2.1-4.3c-0.8-1.2-1.9-2-2.9-2.5c-1-0.5-1.9-0.5-2.5-0.5c-0.6,0.1-0.9,0.2-0.9,0.2c0,0,0.1-0.1,0.2-0.1
				c0.2-0.1,0.4-0.2,0.7-0.2c0.6-0.1,1.6-0.1,2.7,0.3c1.1,0.4,2.2,1.2,3.1,2.5c0.9,1.2,1.5,2.8,2.2,4.4c1.3,3.2,2.6,6,3.5,8.1
				c0.4,1,0.8,1.9,1,2.5C313.8,246.5,313.9,246.8,313.9,246.8z"/>
			<path class="st14" d="M290.5,234.6c0,0,0.3-0.2,0.8-0.5c0.6-0.3,1.4-0.7,2.3-1.1c0.5-0.2,1-0.5,1.6-0.7c0.6-0.2,1.3-0.4,2.1-0.3
				c0.7,0.1,1.5,0.3,2.1,0.8c0.6,0.5,1.1,1.2,1.6,1.9c0.4,0.7,0.8,1.4,1.1,2.1c0.3,0.7,0.7,1.3,1,2c0.7,1.2,1.3,2.3,1.8,3.3
				c0.5,1,0.8,1.8,1,2.3c0.2,0.6,0.3,0.9,0.3,0.9c-0.1,0-0.5-1.2-1.5-3.1c-0.5-0.9-1.2-2-1.9-3.2c-0.4-0.6-0.7-1.3-1.1-2
				c-0.3-0.7-0.7-1.4-1.1-2.1c-0.4-0.7-0.9-1.3-1.5-1.8c-0.6-0.4-1.3-0.7-1.9-0.8c-0.7-0.1-1.3,0-1.9,0.2c-0.6,0.2-1.1,0.5-1.6,0.7
				c-0.9,0.4-1.7,0.7-2.3,1C290.8,234.6,290.5,234.7,290.5,234.6z"/>
			<path class="st14" d="M291.6,230.4c0,0-0.2,0.2-0.7,0.4s-1.1,0.6-2,1.1c-1.7,0.9-4,2.1-6.6,3.4c-2.6,1.3-4.9,2.5-6.6,3.3
				c-0.9,0.4-1.6,0.7-2,1c-0.5,0.2-0.8,0.3-0.8,0.3c0,0,0.2-0.2,0.7-0.4c0.5-0.3,1.1-0.6,2-1.1c1.7-0.9,4-2.1,6.6-3.4
				c2.6-1.3,4.9-2.5,6.6-3.3c0.9-0.4,1.5-0.7,2-0.9C291.3,230.5,291.6,230.4,291.6,230.4z"/>
			<path class="st14" d="M231.6,197.1c0,0.1-2.7-0.6-6-0.2c-3.3,0.4-5.8,1.7-5.8,1.6c0,0,0.5-0.4,1.6-0.9c1-0.5,2.5-0.9,4.2-1.1
				c1.7-0.2,3.3-0.1,4.3,0.1C231,196.8,231.6,197,231.6,197.1z"/>
			<path class="st10" d="M344.4,60c-12.6-0.2-25.3,1.2-37.6,4c-2.9,0.6-5.9,1.5-7.8,3.7c-2,2.3-2.4,5.6-2.7,8.7
				c-0.3,3.8-0.6,7.5-1,11.3c-0.5,0.9-1.2,1.8-1.8,2.7c-3,3.9-6.8,7.1-9.5,11.2c-2.7,4.1-4.2,9.5-2,13.9c1.3,2.6,3.8,4.5,5.6,6.9
				c3.1,4,4.1,9.1,5.8,13.8c1.8,4.7,5,9.5,9.9,10.4c2.3,0.5,4.8,0,7.2,0.3c3.5,0.5,6.5,2.8,9.3,5c2.8,2.2,5.9,4.5,9.4,4.8
				c3.6,0.4,7.6-2.1,7.7-5.6c-2.6,1.5-6.1,1.4-8.6-0.2c-2.1-1.4-3.4-3.6-5.2-5.3c-4.4-4.2-11.4-5.6-14.5-10.9
				c-2.4-4.2-1.4-9.4-0.4-14.1c0.9-4.1,1.9-8.5,0.7-12.4c0.1-0.6,0.1-1.3,0.1-1.9c0-4.2-1.6-8.6,0.3-12.3c2.6-4.9,10-5.5,12.5-10.3
				c1.5-2.8,1-6.4,2.6-9.2c1.6-2.6,4.6-3.8,7.6-4.4c2.9-0.6,6-0.9,8.6-2.5C343.6,66,345.6,62.8,344.4,60z"/>
			<path class="st10" d="M354,144.9c0,0,0,0.1-0.1,0.2c-0.1,0.1-0.2,0.3-0.4,0.6c-0.4,0.5-0.9,1.1-1.8,1.8c-0.9,0.7-2.1,1.4-3.6,1.9
				c-1.5,0.5-3.4,0.8-5.4,0.6c-2-0.2-4.2-1-6.1-2.5c-1.9-1.4-3.6-3.4-5.7-4.9c-1.1-0.8-2.3-1.4-3.6-1.5c-1.3-0.2-2.7,0.2-4,0.7
				c-1.3,0.5-2.7,1.2-4.2,1.4c-1.5,0.3-3.1-0.1-4.5-0.8c-1.4-0.7-2.6-1.6-3.8-2.5c-1.2-0.9-2.3-1.8-3.3-2.9c-1-1-1.9-2.2-2.4-3.6
				c-0.5-1.3-0.5-2.8-0.3-4.1c0.3-1.3,0.7-2.5,1.2-3.7c0.5-1.2,0.9-2.3,1.2-3.4c0.7-2.2,1.2-4.4,1.5-6.4c0.6-3.9,0.6-7.2,0.5-9.4
				c0-1.1-0.1-2-0.2-2.6c0-0.3,0-0.5-0.1-0.7c0-0.2,0-0.2,0-0.2c0,0,0,0.1,0,0.2c0,0.2,0.1,0.4,0.1,0.7c0.1,0.6,0.2,1.4,0.3,2.6
				c0.2,2.2,0.2,5.5-0.4,9.5c-0.3,2-0.8,4.1-1.4,6.4c-0.3,1.1-0.7,2.3-1.2,3.5c-0.4,1.2-0.9,2.4-1.2,3.7c-0.3,1.3-0.2,2.6,0.3,3.9
				c0.5,1.3,1.3,2.4,2.3,3.4c1,1,2.1,1.9,3.3,2.9c1.2,0.9,2.4,1.8,3.7,2.5c1.3,0.7,2.8,1,4.3,0.8c1.4-0.2,2.8-0.9,4.1-1.4
				c1.3-0.5,2.8-1,4.2-0.7c1.4,0.2,2.7,0.8,3.8,1.6c2.2,1.6,3.8,3.5,5.7,4.9c1.8,1.5,3.9,2.3,5.9,2.5c2,0.2,3.8-0.1,5.3-0.6
				c1.5-0.5,2.7-1.2,3.6-1.8C353.3,146,353.9,144.9,354,144.9z"/>
			<path class="st12" d="M274.9,119.8c0,0-0.2-0.3-0.6-0.9c-0.4-0.6-0.8-1.6-1.1-2.9c-0.3-1.3-0.3-3,0.1-4.9
				c0.4-1.9,1.2-3.9,2.7-5.9c1.5-1.9,3.4-3.7,5.7-5.4c2.3-1.7,4.9-3.3,7.4-5.1c2.5-1.8,5.2-4,7-6.8c0.9-1.4,1.6-3,2.1-4.7
				c0.5-1.7,0.9-3.5,1.3-5.3c0.4-1.8,0.9-3.6,1.6-5.2c0.7-1.7,1.8-3.2,3.1-4.3c1.3-1.1,2.9-1.9,4.5-2.5c1.6-0.5,3.2-0.8,4.8-0.9
				c3.2-0.3,6.2,0.1,9,0.3c2.8,0.2,5.4,0.4,7.8,0.1c2.4-0.2,4.4-0.9,6.1-1.8c1.7-0.9,2.9-2,3.8-3c0.8-1,1.3-2,1.5-2.7
				c0.2-0.7,0.3-1,0.3-1c0,0,0,0.4-0.3,1.1c-0.2,0.7-0.6,1.7-1.5,2.7c-0.8,1.1-2.1,2.2-3.8,3.1c-1.7,0.9-3.8,1.7-6.2,1.9
				c-2.4,0.3-5,0.2-7.9,0c-2.8-0.2-5.8-0.5-9-0.2c-1.6,0.1-3.2,0.4-4.7,0.9c-1.6,0.5-3.1,1.3-4.4,2.4c-1.3,1.1-2.3,2.5-3,4.2
				c-0.7,1.6-1.2,3.4-1.6,5.1c-0.4,1.8-0.8,3.6-1.3,5.3c-0.5,1.7-1.2,3.4-2.2,4.8c-1.9,2.9-4.6,5.1-7.2,6.9
				c-2.6,1.8-5.2,3.4-7.4,5.1c-2.3,1.6-4.2,3.4-5.7,5.3c-1.5,1.9-2.3,3.9-2.7,5.7c-0.4,1.8-0.4,3.5-0.1,4.8
				C273.9,118.6,275,119.7,274.9,119.8z"/>
			<path class="st12" d="M277.2,123.9c0,0-1-0.7-2.4-2.3c-0.7-0.8-1.6-1.9-2.1-3.4c-0.3-0.7-0.5-1.6-0.4-2.5
				c0.1-0.9,0.5-1.8,1.1-2.6c1.3-1.6,3.4-2.4,5.6-2.9c1.1-0.2,2.3-0.4,3.5-0.7c1.2-0.3,2.3-0.7,3.4-1.4c1-0.7,1.8-1.7,2.5-2.9
				c0.6-1.2,1.1-2.5,1.5-3.8c0.5-1.3,0.9-2.7,1.6-4c0.7-1.3,1.7-2.5,3-3.3c1.3-0.8,2.7-1.2,4.1-1.6c1.4-0.4,2.8-0.7,4.1-1.1
				c2.6-0.8,4.7-2.6,6.3-4.6c1.6-2,2.8-4.1,3.9-6.1c1.1-2,2.3-3.8,3.6-5.3c1.3-1.5,2.7-2.6,4.1-3.3c1.4-0.7,2.7-1,3.8-1.1
				c1.1-0.1,1.9,0,2.5,0.2c0.6,0.2,0.8,0.3,0.8,0.3c0,0-0.3-0.1-0.8-0.2c-0.5-0.1-1.4-0.2-2.5-0.1c-1.1,0.1-2.3,0.5-3.7,1.2
				c-1.3,0.7-2.7,1.8-3.9,3.3c-1.2,1.5-2.4,3.3-3.5,5.3c-1.1,2-2.3,4.1-3.9,6.2c-0.8,1-1.7,2-2.8,2.8c-1.1,0.8-2.3,1.5-3.7,2
				c-1.3,0.5-2.7,0.8-4.1,1.1c-1.4,0.4-2.8,0.8-4,1.6c-1.2,0.8-2.2,1.9-2.8,3.1c-0.7,1.3-1.1,2.6-1.6,3.9c-0.5,1.3-0.9,2.6-1.6,3.8
				c-0.6,1.2-1.5,2.3-2.6,3c-1.1,0.8-2.3,1.2-3.5,1.4c-1.2,0.3-2.4,0.5-3.5,0.7c-2.2,0.4-4.2,1.3-5.5,2.7c-0.6,0.7-0.9,1.6-1,2.4
				c-0.1,0.8,0.1,1.7,0.3,2.4c0.5,1.4,1.3,2.5,2,3.3c0.7,0.8,1.3,1.4,1.7,1.8c0.2,0.2,0.3,0.3,0.5,0.5
				C277.2,123.8,277.2,123.9,277.2,123.9z"/>
			<path class="st14" d="M374.6,72.8c0,0-0.1,0.2-0.4,0.6c-0.3,0.4-0.7,0.9-1.2,1.6c-1.1,1.3-2.6,3-4.4,4.9
				c-0.9,0.9-1.7,1.9-2.9,2.2c-0.6,0.2-1.2,0.2-1.7,0c-0.5-0.2-0.9-0.6-1.1-1c-0.4-0.8-0.4-1.6-0.3-2c0.1-0.5,0.2-0.7,0.2-0.7
				c0,0,0,0.3,0,0.7c0,0.5,0,1.2,0.4,1.9c0.2,0.3,0.5,0.7,0.9,0.8c0.4,0.2,0.9,0.1,1.4,0c1-0.3,1.8-1.3,2.7-2.2
				c1.8-1.8,3.4-3.5,4.5-4.8C373.9,73.5,374.6,72.7,374.6,72.8z"/>
			<path class="st14" d="M380.7,72.8c0,0-0.1,0.2-0.5,0.6c-0.3,0.4-0.8,0.9-1.4,1.6c-0.6,0.7-1.3,1.5-2.1,2.3
				c-0.4,0.4-0.8,0.9-1.3,1.4c-0.4,0.5-0.9,1-1.5,1.4c-0.6,0.4-1.2,0.7-1.9,0.8c-0.7,0.1-1.4-0.2-1.8-0.8c-0.2-0.3-0.3-0.6-0.3-0.9
				c0-0.3,0.1-0.6,0.3-0.8c0.3-0.5,0.6-0.8,0.9-1.2c0.5-0.7,1-1.3,1.3-1.7c0.3-0.4,0.5-0.6,0.5-0.6c0,0-0.1,0.3-0.4,0.7
				c-0.3,0.4-0.7,1-1.2,1.8c-0.2,0.4-0.5,0.8-0.8,1.2c-0.3,0.4-0.3,0.9,0,1.4c0.3,0.4,0.9,0.7,1.5,0.6c0.6,0,1.2-0.3,1.7-0.7
				c0.5-0.4,1-0.9,1.4-1.3c0.4-0.5,0.9-0.9,1.3-1.3c0.8-0.8,1.5-1.6,2.2-2.2c0.6-0.6,1.1-1.1,1.5-1.5
				C380.5,73,380.7,72.8,380.7,72.8z"/>
			<path class="st11" d="M463.3,315.1c1.4-2.9,4.2-5.1,7.4-5.7c3.2-0.6,6.6,0.6,8.9,2.9c-1.5,2.7-4.3,4.6-7.3,5.6
				C468.8,319,465,317.6,463.3,315.1z"/>
			<path class="st10" d="M457.7,316.4c0,0,0.8-0.4,2.3-0.7c1.4-0.3,3.4-0.7,5.6-1.1c2.2-0.4,4.2-0.6,5.7-0.8
				c1.5-0.2,2.4-0.2,2.4-0.2c0,0.1-0.9,0.2-2.3,0.5c-1.6,0.3-3.5,0.6-5.7,0.9c-2.2,0.4-4.2,0.7-5.6,1
				C458.6,316.2,457.7,316.4,457.7,316.4z"/>
			<path class="st11" d="M180.5,265c3.4,2.8,5.2,7.3,4.7,11.6c-0.5,4.3-3.2,8.3-7.1,10.3C175.2,279.4,174.1,271.4,180.5,265z"/>
			<path class="st11" d="M191.5,270.7c0.3,5.6,3.6,11,8.5,13.8c4.9,2.8,11.2,3,16.2,0.5C210.6,276.3,203.1,269,191.5,270.7z"/>
			<path class="st10" d="M166.3,243.1c0,0,0.1,0.1,0.4,0.4c0.3,0.3,0.6,0.7,1,1.2c0.8,1,2.1,2.5,3.6,4.3c3.1,3.6,7.4,8.6,12.6,13.8
				c2.6,2.6,5.1,5,7.4,7.1c2.4,2.1,4.6,3.9,6.4,5.3c1.9,1.4,3.5,2.5,4.7,3.2c1.1,0.7,1.8,1,1.8,1c0,0-0.2-0.1-0.5-0.2
				c-0.3-0.1-0.8-0.3-1.4-0.7c-1.2-0.6-2.8-1.7-4.8-3.1c-1.9-1.4-4.1-3.2-6.5-5.3c-2.4-2.1-4.9-4.5-7.5-7.1
				c-5.1-5.2-9.5-10.2-12.5-13.9c-1.5-1.8-2.7-3.4-3.5-4.4c-0.4-0.5-0.7-0.9-0.9-1.2C166.4,243.3,166.3,243.2,166.3,243.1z"/>
			<path class="st10" d="M179.9,276.2c-0.1,0,0.2-1.1,0.4-2.9c0.2-1.8,0.4-4.3,0.1-7.1c-0.3-2.7-0.9-5.2-1.5-6.9
				c-0.6-1.7-1.1-2.7-1-2.8c0,0,0.2,0.2,0.4,0.7c0.2,0.5,0.5,1.1,0.9,2c0.7,1.7,1.4,4.2,1.7,6.9c0.3,2.8,0.1,5.3-0.2,7.1
				c-0.2,0.9-0.3,1.6-0.5,2.1C180,276,179.9,276.2,179.9,276.2z"/>
			<path class="st11" d="M529.1,116.1c-2-2.6-2.5-6.1-1.5-9.2c1-3.1,3.6-5.6,6.7-6.5c1.7,2.7,2,6,1.5,9.1
				C535.2,113.1,532.1,115.8,529.1,116.1z"/>
			<path class="st10" d="M527.5,121.6c-0.1,0,0.1-0.9,0.5-2.3c0.4-1.4,1-3.4,1.7-5.5c0.7-2.1,1.4-4,2-5.4c0.5-1.4,0.9-2.2,1-2.2
				c0.1,0-0.2,0.9-0.7,2.3c-0.5,1.5-1.2,3.4-1.9,5.4c-0.7,2.1-1.4,4-1.8,5.4C527.8,120.8,527.6,121.6,527.5,121.6z"/>
			<path class="st11" d="M494.2,174.9c-1.6-6-0.1-12.9,4-17.6c4.1-4.8,10.5-7.4,16.8-6.7c1.1,6-0.8,12.1-3.9,17.3
				C507.3,174.1,499.9,176.7,494.2,174.9z"/>
			<path class="st10" d="M470.8,198.4c0,0,0.1-0.2,0.3-0.4c0.3-0.3,0.6-0.7,1-1.2c0.9-1,2.2-2.4,3.9-4.2c3.3-3.5,8-8.2,13.1-13.5
				c5.2-5.2,9.9-9.9,13.3-13.3c1.7-1.7,3.1-3,4.1-4c0.5-0.4,0.8-0.8,1.1-1.1c0.3-0.2,0.4-0.4,0.4-0.4c0,0-0.1,0.2-0.3,0.4
				c-0.3,0.3-0.6,0.7-1.1,1.1c-1,1-2.3,2.4-4,4.1c-3.4,3.5-8.1,8.2-13.2,13.4c-5.1,5.2-9.8,9.9-13.2,13.4c-1.7,1.7-3,3.1-4,4.1
				c-0.4,0.5-0.8,0.8-1.1,1.1C471,198.2,470.8,198.4,470.8,198.4z"/>
			<g class="st15">
				<path class="st10" d="M494.2,174.9c-1.6-6-0.1-12.9,4-17.6c4.1-4.8,10.5-7.4,16.8-6.7c1.1,6-0.8,12.1-3.9,17.3
					C507.3,174.1,499.9,176.7,494.2,174.9z"/>
			</g>
			<path class="st11" d="M483.4,177.3c-3.4-1.8-5.9-5.3-6.4-9.1c-0.5-3.8,1-7.8,3.9-10.4c3.2,2,5.2,5.4,6.3,8.9
				C488.4,171,486.5,175.4,483.4,177.3z"/>
			<g class="st15">
				<path class="st10" d="M483.4,177.3c-3.4-1.8-5.9-5.3-6.4-9.1c-0.5-3.8,1-7.8,3.9-10.4c3.2,2,5.2,5.4,6.3,8.9
					C488.4,171,486.5,175.4,483.4,177.3z"/>
			</g>
			<path class="st10" d="M484.6,184c0,0-0.1-0.3-0.2-0.7c-0.1-0.5-0.3-1.2-0.5-2c-0.3-1.7-0.7-4.1-1-6.7c-0.3-2.6-0.5-5-0.7-6.8
				c-0.1-1.7-0.2-2.8-0.1-2.8c0.1,0,0.2,1.1,0.4,2.8c0.2,1.8,0.5,4.2,0.8,6.8c0.3,2.6,0.6,5,0.9,6.7C484.5,183,484.7,184,484.6,184z
				"/>
			<path class="st11" d="M335.2,269c2.4-5.7,7.8-10,13.9-11.1c6.1-1.1,12.7,1,16.9,5.5C357,270.4,346.6,275.1,335.2,269z"/>
			<g class="st15">
				<path class="st10" d="M335.2,269c2.4-5.7,7.8-10,13.9-11.1c6.1-1.1,12.7,1,16.9,5.5C357,270.4,346.6,275.1,335.2,269z"/>
			</g>
			<path class="st10" d="M330.1,271.8c0,0,0.2-0.2,0.7-0.6c0.5-0.3,1.2-0.8,2.1-1.3c1.8-1.1,4.4-2.3,7.4-3.3c3-1,5.9-1.5,7.9-1.7
				c1-0.1,1.9-0.2,2.5-0.2c0.6,0,0.9,0,0.9,0c0,0.1-1.3,0.1-3.3,0.4c-2,0.3-4.8,0.9-7.8,1.8c-3,1-5.6,2.2-7.4,3.2
				C331.3,271.1,330.2,271.8,330.1,271.8z"/>
			<path class="st11" d="M126.6,165.9c4.3-2,9.7-1.7,13.7,0.8c4.1,2.5,6.7,7.1,6.9,11.9C138.5,177.9,130,175.3,126.6,165.9z"/>
			<g class="st15">
				<path class="st10" d="M126.6,165.9c4.3-2,9.7-1.7,13.7,0.8c4.1,2.5,6.7,7.1,6.9,11.9C138.5,177.9,130,175.3,126.6,165.9z"/>
			</g>
			<path class="st10" d="M122.3,164.9c0,0,0.3,0,0.7,0c0.4,0,1.1,0.1,1.9,0.3c1.6,0.3,3.7,0.9,6,1.9c2.2,1,4.1,2.2,5.4,3.1
				c0.6,0.5,1.2,0.9,1.5,1.2c0.3,0.3,0.5,0.5,0.5,0.5c0,0.1-0.8-0.6-2.2-1.4c-1.3-0.9-3.2-2-5.4-3c-2.2-1-4.3-1.6-5.9-2
				C123.3,165.1,122.3,164.9,122.3,164.9z"/>
			<path class="st11" d="M410.2,259.3c-0.5-4.2,1.2-8.7,4.5-11.4c3.3-2.8,7.9-3.7,12-2.5C423.7,252.6,419.1,259.1,410.2,259.3z"/>
			<path class="st10" d="M408.1,262.7c0,0,0.3-0.8,1-2.1c0.7-1.2,1.8-2.9,3.3-4.5c1.5-1.6,3-2.9,4.2-3.8c1.2-0.8,2-1.3,2-1.2
				c0,0.1-0.7,0.6-1.8,1.4c-1.1,0.9-2.6,2.2-4,3.8c-1.4,1.6-2.6,3.2-3.3,4.4C408.6,262,408.2,262.8,408.1,262.7z"/>
			<path class="st11" d="M472.4,218.2c-1.3-4.1-0.4-8.8,2.3-12.1c2.7-3.3,7.1-5.2,11.3-4.7C484.5,209.1,481.1,216.3,472.4,218.2z"/>
			<g class="st15">
				<path class="st10" d="M472.4,218.2c-1.3-4.1-0.4-8.8,2.3-12.1c2.7-3.3,7.1-5.2,11.3-4.7C484.5,209.1,481.1,216.3,472.4,218.2z"
					/>
			</g>
			<path class="st10" d="M471,221.9c0,0,0.1-0.9,0.6-2.2c0.5-1.4,1.2-3.2,2.4-5.1c1.1-1.9,2.4-3.4,3.4-4.5c1-1,1.7-1.6,1.7-1.6
				c0,0-0.6,0.7-1.5,1.8c-0.9,1.1-2.1,2.6-3.3,4.5c-1.1,1.9-1.9,3.6-2.4,5C471.4,221.1,471.1,222,471,221.9z"/>
			<path class="st11" d="M3.1,161.6c0.9-4.2,4.1-7.8,8-9.3c4-1.5,8.7-0.9,12.2,1.6C18.1,159.8,11.6,164.3,3.1,161.6z"/>
			<path class="st10" d="M0,164.1c0,0,0.5-0.7,1.6-1.7c1.1-0.9,2.7-2.1,4.6-3.2c1.9-1.1,3.8-1.8,5.2-2.2c1.4-0.4,2.3-0.5,2.3-0.5
				c0,0.1-0.8,0.3-2.2,0.8c-1.3,0.5-3.2,1.2-5.1,2.2c-1.9,1-3.5,2.2-4.6,3.1C0.7,163.6,0,164.2,0,164.1z"/>
			<path class="st1" d="M364.8,58.3l6.4-11.5c-2.9-4.6-4.6-10.1-4.7-15.9c-0.2-16.8,13.4-30.6,30.2-30.8
				c16.8-0.2,30.6,13.4,30.8,30.2c0.2,16.8-13.4,30.6-30.2,30.8c-7,0.1-13.5-2.3-18.7-6.2l0,0L364.8,58.3z"/>
			<path class="st10" d="M364.8,58.3c0.7-0.2,5-1.3,13.7-3.5l-0.1,0.2l0,0l-0.5-0.6l0.6,0.5c1.7,1.3,3.8,2.6,6.3,3.7
				c2.5,1,5.2,1.9,8.3,2.3c1.5,0.2,3.1,0.3,4.8,0.2c0.8-0.1,1.7-0.1,2.5-0.2c0.8-0.1,1.7-0.3,2.5-0.4c3.4-0.7,6.9-2.1,10.1-4.1
				c3.2-2,6.2-4.8,8.6-8.2c2.4-3.4,4.2-7.4,5-11.7c0.8-4.3,0.7-8.9-0.5-13.4c-1.2-4.4-3.4-8.8-6.6-12.3l-1.2-1.3
				c-0.4-0.5-0.9-0.8-1.3-1.2c-0.5-0.4-0.9-0.8-1.4-1.2l-1.5-1.1c-0.5-0.4-1-0.7-1.5-1l-1.5-0.9c-0.5-0.3-1.1-0.5-1.6-0.8
				c-0.5-0.2-1.1-0.5-1.6-0.7c-4.4-1.7-9.1-2.3-13.5-2c-4.5,0.4-8.7,1.7-12.4,3.8c-3.7,2.1-6.7,4.8-9.1,7.9
				c-2.4,3.1-4.1,6.5-5.1,9.8c-1,3.4-1.3,6.7-1.2,9.8c0.2,6.3,2.3,11.4,4.6,15l0,0l0,0C367.1,54.2,365.1,57.7,364.8,58.3
				c0.3-0.6,2.3-4.2,6.3-11.5v0.1c-2.3-3.6-4.5-8.8-4.7-15.1c0-3.1,0.2-6.5,1.2-9.9c1-3.4,2.7-6.8,5.1-9.9c2.4-3.1,5.5-5.9,9.2-8
				c3.7-2.1,8-3.5,12.5-3.8c4.5-0.4,9.2,0.3,13.7,2c0.6,0.2,1.1,0.5,1.6,0.7c0.5,0.3,1.1,0.5,1.6,0.8l1.6,0.9c0.5,0.3,1.1,0.6,1.5,1
				l1.5,1.1c0.5,0.3,0.9,0.8,1.4,1.2c0.5,0.4,0.9,0.8,1.4,1.3l1.3,1.4c3.3,3.6,5.5,8,6.7,12.5c1.2,4.5,1.3,9.2,0.5,13.6
				c-0.8,4.4-2.6,8.4-5,11.8c-2.4,3.4-5.4,6.2-8.7,8.3c-3.3,2.1-6.8,3.4-10.2,4.1c-0.9,0.1-1.7,0.3-2.6,0.4
				c-0.9,0.1-1.7,0.1-2.5,0.2c-1.7,0.1-3.3,0-4.8-0.2c-3.1-0.4-5.9-1.2-8.4-2.3c-2.5-1.1-4.6-2.4-6.3-3.7l0.1-0.1l0,0l0.1,0.1
				l-0.2,0C369.8,57.1,365.5,58.2,364.8,58.3z"/>
			<path class="st6" d="M388.5,25.4l4,0c0,0,0-3.3,3.4-3.4c1.8,0,2.7,1.1,3.1,2c0.5,1,0.3,2.2-0.3,3.2c-0.7,1.1-2.1,2.1-4.8,1.7
				l0.1,8.9l3.9,0l0-5.2c0,0,5.5-1.5,5.4-7.5c-0.1-5.8-5.3-7.1-7.5-7.1C394.1,18,388.3,18.4,388.5,25.4z"/>
			<path class="st6" d="M398,39.7l-4,0l0,3.7l4,0L398,39.7z"/>
		</g>
	</g>
</g>
</svg>
